<svg class="animated" id="freepik_stories-world-childrens-day" xmlns="http://www.w3.org/2000/svg" viewBox="0 0 500 500" version="1.1" xmlns:xlink="http://www.w3.org/1999/xlink" xmlns:svgjs="http://svgjs.com/svgjs"><style>svg#freepik_stories-world-childrens-day:not(.animated) .animable {opacity: 0;}svg#freepik_stories-world-childrens-day.animated #freepik--Floor--inject-114 {animation: 1s 1 forwards cubic-bezier(.36,-0.01,.5,1.38) slideUp;animation-delay: 0s;}svg#freepik_stories-world-childrens-day.animated #freepik--Shadows--inject-114 {animation: 1s 1 forwards cubic-bezier(.36,-0.01,.5,1.38) zoomIn;animation-delay: 0s;}svg#freepik_stories-world-childrens-day.animated #freepik--Garlands--inject-114 {animation: 1s 1 forwards cubic-bezier(.36,-0.01,.5,1.38) slideDown,1.5s Infinite  linear wind;animation-delay: 0s,1s;}svg#freepik_stories-world-childrens-day.animated #freepik--character-3--inject-114 {animation: 1s 1 forwards cubic-bezier(.36,-0.01,.5,1.38) fadeIn,1.5s Infinite  linear floating;animation-delay: 0s,1s;}svg#freepik_stories-world-childrens-day.animated #freepik--character-2--inject-114 {animation: 1s 1 forwards cubic-bezier(.36,-0.01,.5,1.38) fadeIn,1.5s Infinite  linear floating;animation-delay: 0s,1s;}svg#freepik_stories-world-childrens-day.animated #freepik--character-1--inject-114 {animation: 1s 1 forwards cubic-bezier(.36,-0.01,.5,1.38) fadeIn,1.5s Infinite  linear floating;animation-delay: 0s,1s;}svg#freepik_stories-world-childrens-day.animated #freepik--Text--inject-114 {animation: 1s 1 forwards cubic-bezier(.36,-0.01,.5,1.38) slideUp;animation-delay: 0s;}            @keyframes slideUp {                0% {                    opacity: 0;                    transform: translateY(30px);                }                100% {                    opacity: 1;                    transform: inherit;                }            }                    @keyframes zoomIn {                0% {                    opacity: 0;                    transform: scale(0.5);                }                100% {                    opacity: 1;                    transform: scale(1);                }            }                    @keyframes slideDown {                0% {                    opacity: 0;                    transform: translateY(-30px);                }                100% {                    opacity: 1;                    transform: translateY(0);                }            }                    @keyframes wind {                0% {                    transform: rotate( 0deg );                }                25% {                    transform: rotate( 1deg );                }                75% {                    transform: rotate( -1deg );                }            }                    @keyframes fadeIn {                0% {                    opacity: 0;                }                100% {                    opacity: 1;                }            }                    @keyframes floating {                0% {                    opacity: 1;                    transform: translateY(0px);                }                50% {                    transform: translateY(-10px);                }                100% {                    opacity: 1;                    transform: translateY(0px);                }            }        </style><g id="freepik--Floor--inject-114" class="animable" style="transform-origin: 250px 345.54px;"><ellipse id="freepik--floor--inject-114" cx="250" cy="345.54" rx="223.41" ry="142.16" style="fill: rgb(250, 250, 250); transform-origin: 250px 345.54px;" class="animable"></ellipse></g><g id="freepik--Shadows--inject-114" class="animable" style="transform-origin: 250.25px 388.865px;"><ellipse id="freepik--Shadow--inject-114" cx="121.03" cy="404.23" rx="54.14" ry="31.26" style="fill: rgb(240, 240, 240); transform-origin: 121.03px 404.23px;" class="animable"></ellipse><ellipse id="freepik--shadow--inject-114" cx="379.47" cy="404.23" rx="54.14" ry="31.26" style="fill: rgb(240, 240, 240); transform-origin: 379.47px 404.23px;" class="animable"></ellipse><ellipse id="freepik--shadow--inject-114" cx="250" cy="373.5" rx="54.14" ry="31.26" style="fill: rgb(240, 240, 240); transform-origin: 250px 373.5px;" class="animable"></ellipse></g><g id="freepik--Garlands--inject-114" class="animable" style="transform-origin: 250px 78.4491px;"><g id="freepik--Flags--inject-114" class="animable" style="transform-origin: 250px 78.4491px;"><g id="freepik--flags--inject-114" class="animable" style="transform-origin: 130.095px 76.9106px;"><path d="M41.36,116.32s1.66,16.79.32,21.53,10.46-13.47,12.53-24.57C54.21,113.28,45.57,115.2,41.36,116.32Z" style="fill: rgb(245, 245, 245); transform-origin: 47.785px 125.951px;" id="el2drb82wcdau" class="animable"></path><path d="M84.49,105s1.41,14.34.07,19.08,9.71-12.22,11.79-23.32C96.35,100.75,87.76,103.84,84.49,105Z" style="fill: rgb(245, 245, 245); transform-origin: 90.3988px 112.828px;" id="ell8tlrkpr5de" class="animable"></path><path d="M64.18,110.71s.39,15-1.18,19.68,10.41-12.31,13-23.3C76,107.09,68.35,109.59,64.18,110.71Z" style="fill: rgb(224, 224, 224); transform-origin: 69.4294px 119.139px;" id="elcqfxw3vd6if" class="animable"></path><path d="M105.52,97.68s1.2,14.11-.12,18.86S115,104.47,117,93.36C117,93.36,110.42,96,105.52,97.68Z" style="fill: rgb(224, 224, 224); transform-origin: 111.145px 105.363px;" id="eleyrjgjab2bw" class="animable"></path><path d="M125.82,89.78s2.07,15.52,1.69,20.43S138,95.57,137.82,84.27C137.82,84.27,129.73,87.86,125.82,89.78Z" style="fill: rgb(245, 245, 245); transform-origin: 131.821px 97.6281px;" id="elo6ynu0gp1i" class="animable"></path><path d="M165.86,70.17s2,15.68,1.6,20.58,9.35-15.78,9.2-27.08C176.66,63.67,168.85,68.4,165.86,70.17Z" style="fill: rgb(245, 245, 245); transform-origin: 171.261px 77.5791px;" id="elasqjc425drd" class="animable"></path><path d="M147.08,79.79s1,15.47.38,20.35,10.13-15,10.53-26.25C158,73.89,151,77.86,147.08,79.79Z" style="fill: rgb(224, 224, 224); transform-origin: 152.535px 87.3935px;" id="el32howeavy2m" class="animable"></path><path d="M203.19,46.89s5.73,15.6,6.33,20.49,6.74-17.22,4.36-28.27C213.88,39.11,206.65,44.23,203.19,46.89Z" style="fill: rgb(245, 245, 245); transform-origin: 208.808px 53.5928px;" id="elgg1jubb36ld" class="animable"></path><path d="M221.1,33.62s5.07,15,5.69,19.9,5.83-17.29,3.41-28.32C230.2,25.2,224.37,30.79,221.1,33.62Z" style="fill: rgb(224, 224, 224); transform-origin: 225.969px 39.7081px;" id="elqwmfmyky1g" class="animable"></path><path d="M185,58.85s3,15.58,2.67,20.49,8-15.7,7.76-27C195.47,52.35,189.51,56.26,185,58.85Z" style="fill: rgb(224, 224, 224); transform-origin: 190.218px 66.2115px;" id="el5bgi8vo6435" class="animable"></path><path d="M239.8,15.26C233.08,22.19,215,39.5,185,58.4c-33.62,21.19-89,48.47-165.9,61.72v1c77.13-13.27,132.75-40.65,166.47-61.92,30.93-19.5,49.26-37.41,55.52-44Z" style="fill: rgb(245, 245, 245); transform-origin: 130.095px 68.16px;" id="elp1d8zj2d3t" class="animable"></path></g><g id="freepik--flags--inject-114" class="animable" style="transform-origin: 103.885px 56.1991px;"><path d="M25,75.73s.57,15.37-.24,20.54C24,101.13,35,84.5,37.09,73.41,37.09,73.41,28,75.28,25,75.73Z" style="fill: rgb(224, 224, 224); transform-origin: 30.9062px 85.2741px;" id="elqrm56c44d2n" class="animable"></path><path d="M45.42,71.76s1.66,16.8.33,21.53S56.2,79.83,58.28,68.72C58.28,68.72,49.64,70.64,45.42,71.76Z" style="fill: rgb(245, 245, 245); transform-origin: 51.85px 81.3895px;" id="elbpbj4oziyjl" class="animable"></path><path d="M88.55,60.43s1.41,14.34.07,19.08,9.72-12.21,11.79-23.32C100.41,56.19,91.83,59.28,88.55,60.43Z" style="fill: rgb(245, 245, 245); transform-origin: 94.4589px 68.2586px;" id="elve83bjugoz9" class="animable"></path><path d="M68.24,66.15s.39,15-1.17,19.68,10.4-12.31,13-23.3C80.1,62.53,72.41,65,68.24,66.15Z" style="fill: rgb(224, 224, 224); transform-origin: 73.5002px 74.5785px;" id="el04ju5uabxktn" class="animable"></path><path d="M109.58,53.12s1.2,14.11-.12,18.86,9.6-12.07,11.63-23.18C121.09,48.8,114.48,51.46,109.58,53.12Z" style="fill: rgb(224, 224, 224); transform-origin: 115.22px 60.8027px;" id="ell5bv44maml" class="animable"></path><path d="M129.88,45.23s2.07,15.51,1.69,20.42S142,51,141.88,39.71C141.88,39.71,133.79,43.3,129.88,45.23Z" style="fill: rgb(245, 245, 245); transform-origin: 135.881px 53.0679px;" id="elv5pu3sdxnqo" class="animable"></path><path d="M169.93,25.61s2,15.68,1.59,20.59,9.36-15.79,9.2-27.09C180.72,19.11,172.91,23.84,169.93,25.61Z" style="fill: rgb(245, 245, 245); transform-origin: 175.326px 33.0252px;" id="eld3xqntrx8fv" class="animable"></path><path d="M151.15,35.23s1,15.47.37,20.35,10.13-14.95,10.53-26.24C162.05,29.34,155,33.3,151.15,35.23Z" style="fill: rgb(224, 224, 224); transform-origin: 156.6px 42.8393px;" id="el1h1q90cdmlt" class="animable"></path><path d="M186.79,15.26c-34.43,21.35-90.43,48.3-167.69,61v1c78.52-12.87,135.17-40.45,169.57-62Z" style="fill: rgb(245, 245, 245); transform-origin: 103.885px 46.26px;" id="el4eom7issch3" class="animable"></path></g><g id="freepik--flags--inject-114" class="animable" style="transform-origin: 369.905px 78.4491px;"><path d="M479,120.29s-.57,15.37.24,20.54c.77,4.86-10.17-11.77-12.31-22.86C467,118,476.11,119.84,479,120.29Z" style="fill: rgb(224, 224, 224); transform-origin: 473.104px 129.834px;" id="elvsjtexxax3d" class="animable"></path><path d="M458.64,116.32s-1.66,16.79-.32,21.53-10.46-13.47-12.53-24.57C445.79,113.28,454.43,115.2,458.64,116.32Z" style="fill: rgb(245, 245, 245); transform-origin: 452.215px 125.951px;" id="ela4viag2ace" class="animable"></path><path d="M415.51,105s-1.41,14.34-.07,19.08-9.71-12.22-11.79-23.32C403.65,100.75,412.24,103.84,415.51,105Z" style="fill: rgb(245, 245, 245); transform-origin: 409.601px 112.828px;" id="eleadv1xabqrl" class="animable"></path><path d="M435.82,110.71s-.39,15,1.18,19.68-10.41-12.31-13-23.3C424,107.09,431.65,109.59,435.82,110.71Z" style="fill: rgb(224, 224, 224); transform-origin: 430.571px 119.139px;" id="elizrz12bynvf" class="animable"></path><path d="M394.48,97.68s-1.2,14.11.12,18.86S385,104.47,383,93.36C383,93.36,389.58,96,394.48,97.68Z" style="fill: rgb(224, 224, 224); transform-origin: 388.855px 105.363px;" id="elvwuk3sgcmve" class="animable"></path><path d="M374.18,89.78s-2.07,15.52-1.69,20.43S362,95.57,362.18,84.27C362.18,84.27,370.27,87.86,374.18,89.78Z" style="fill: rgb(245, 245, 245); transform-origin: 368.179px 97.6281px;" id="elkng8bdy2w8r" class="animable"></path><path d="M334.14,70.17s-2,15.68-1.6,20.58-9.35-15.78-9.2-27.08C323.34,63.67,331.15,68.4,334.14,70.17Z" style="fill: rgb(245, 245, 245); transform-origin: 328.739px 77.5791px;" id="elk61bo1u64m" class="animable"></path><path d="M352.92,79.79s-1,15.47-.38,20.35-10.13-15-10.53-26.25C342,73.89,349.05,77.86,352.92,79.79Z" style="fill: rgb(224, 224, 224); transform-origin: 347.465px 87.3935px;" id="elbk3ow2r2qfe" class="animable"></path><path d="M296.81,46.89s-5.73,15.6-6.33,20.49-6.74-17.22-4.36-28.27C286.12,39.11,293.35,44.23,296.81,46.89Z" style="fill: rgb(245, 245, 245); transform-origin: 291.192px 53.5928px;" id="elvpugpspeikr" class="animable"></path><path d="M278.9,33.62s-5.07,15-5.69,19.9-5.83-17.29-3.41-28.32C269.8,25.2,275.63,30.79,278.9,33.62Z" style="fill: rgb(224, 224, 224); transform-origin: 274.031px 39.7081px;" id="ellf9ht8vneu" class="animable"></path><path d="M315,58.85s-3,15.58-2.67,20.49-8-15.7-7.76-27C304.53,52.35,310.49,56.26,315,58.85Z" style="fill: rgb(224, 224, 224); transform-origin: 309.782px 66.2115px;" id="el52nxa1vshyj" class="animable"></path><path d="M260.2,15.26C266.92,22.19,285,39.5,315,58.4c33.62,21.19,89.05,48.47,165.9,61.72v1c-77.13-13.27-132.75-40.65-166.47-61.92-30.93-19.5-49.26-37.41-55.52-44Z" style="fill: rgb(245, 245, 245); transform-origin: 369.905px 68.16px;" id="el95gvlb1rlhh" class="animable"></path></g><g id="freepik--flags--inject-114" class="animable" style="transform-origin: 396.115px 56.1991px;"><path d="M475,75.73s-.57,15.37.24,20.54c.77,4.86-10.17-11.77-12.31-22.86C462.91,73.41,472,75.28,475,75.73Z" style="fill: rgb(224, 224, 224); transform-origin: 469.104px 85.2741px;" id="elnntwazhrhw8" class="animable"></path><path d="M454.58,71.76s-1.66,16.8-.33,21.53S443.8,79.83,441.72,68.72C441.72,68.72,450.36,70.64,454.58,71.76Z" style="fill: rgb(245, 245, 245); transform-origin: 448.15px 81.3895px;" id="eleecasbfhcrh" class="animable"></path><path d="M411.45,60.43s-1.41,14.34-.07,19.08-9.72-12.21-11.79-23.32C399.59,56.19,408.17,59.28,411.45,60.43Z" style="fill: rgb(245, 245, 245); transform-origin: 405.541px 68.2586px;" id="ela7itq2949o" class="animable"></path><path d="M431.76,66.15s-.39,15,1.17,19.68-10.4-12.31-13-23.3C419.91,62.53,427.59,65,431.76,66.15Z" style="fill: rgb(224, 224, 224); transform-origin: 426.5px 74.5785px;" id="ele11dhlq6qst" class="animable"></path><path d="M390.42,53.12s-1.2,14.11.12,18.86-9.6-12.07-11.63-23.18C378.91,48.8,385.52,51.46,390.42,53.12Z" style="fill: rgb(224, 224, 224); transform-origin: 384.78px 60.8027px;" id="elcm3y9wbb2rm" class="animable"></path><path d="M370.12,45.23s-2.07,15.51-1.69,20.42S358,51,358.12,39.71C358.12,39.71,366.21,43.3,370.12,45.23Z" style="fill: rgb(245, 245, 245); transform-origin: 364.12px 53.0679px;" id="el5v5enqydk2m" class="animable"></path><path d="M330.07,25.61s-2,15.68-1.59,20.59-9.36-15.79-9.2-27.09C319.28,19.11,327.09,23.84,330.07,25.61Z" style="fill: rgb(245, 245, 245); transform-origin: 324.674px 33.0252px;" id="elf0dzq05qte9" class="animable"></path><path d="M348.85,35.23s-1,15.47-.37,20.35S338.35,40.63,338,29.34C338,29.34,345,33.3,348.85,35.23Z" style="fill: rgb(224, 224, 224); transform-origin: 343.425px 42.8393px;" id="elunegztotl6a" class="animable"></path><path d="M313.21,15.26c34.43,21.35,90.43,48.3,167.69,61v1c-78.52-12.87-135.17-40.45-169.57-62Z" style="fill: rgb(245, 245, 245); transform-origin: 396.115px 46.26px;" id="el8xhrn9jn9v5" class="animable"></path></g></g></g><g id="freepik--Stars--inject-114" class="animable" style="transform-origin: 253.752px 159.467px;"><g id="freepik--stars--inject-114" class="animable" style="transform-origin: 253.752px 159.467px;"><path d="M454.68,257.35l-1.9-4.78-5-1.14a1.32,1.32,0,0,1-.55-2.3l4-3.28-.46-5.12a1.31,1.31,0,0,1,2-1.23l4.34,2.75,4.73-2a1.31,1.31,0,0,1,1.79,1.53l-1.27,5,3.38,3.88a1.31,1.31,0,0,1-.9,2.17l-5.13.33L457,257.54A1.32,1.32,0,0,1,454.68,257.35Z" style="fill: rgb(0, 167, 170); transform-origin: 456.41px 248.722px;" id="elsobalix0lw" class="animable"></path><path d="M459.69,186.83l-1.24-3.14-3.3-.75a.87.87,0,0,1-.36-1.51l2.6-2.15-.3-3.37a.86.86,0,0,1,1.32-.8l2.86,1.8,3.1-1.33a.87.87,0,0,1,1.18,1l-.84,3.27,2.22,2.55a.86.86,0,0,1-.59,1.43l-3.37.21-1.73,2.9A.87.87,0,0,1,459.69,186.83Z" style="fill: rgb(0, 167, 170); transform-origin: 460.815px 181.17px;" id="elp1377993l6s" class="animable"></path><path d="M472.32,191.07a1.54,1.54,0,1,1-1.54-1.54A1.53,1.53,0,0,1,472.32,191.07Z" style="fill: rgb(224, 224, 224); transform-origin: 470.78px 191.07px;" id="elzip9mbeq0qh" class="animable"></path><path d="M34,178.15l-2.61-2.7-3.7.61a1,1,0,0,1-1-1.4l1.77-3.31L26.75,168a1,1,0,0,1,1-1.39l3.69.66,2.64-2.67a1,1,0,0,1,1.64.54l.51,3.72,3.36,1.69a1,1,0,0,1,0,1.72l-3.38,1.64-.56,3.71A1,1,0,0,1,34,178.15Z" style="fill: rgb(0, 167, 170); transform-origin: 33.3423px 171.38px;" id="elkv90hrovig" class="animable"></path><path d="M48.8,177.21a1.71,1.71,0,1,1-2.23-.94A1.71,1.71,0,0,1,48.8,177.21Z" style="fill: rgb(224, 224, 224); transform-origin: 47.2157px 177.853px;" id="el0skdn32yjubn" class="animable"></path><path d="M192.14,187.74l-1.75-2.62-3.15,0a.8.8,0,0,1-.62-1.3l1.94-2.48-.94-3a.8.8,0,0,1,1-1l3,1.08,2.56-1.82a.81.81,0,0,1,1.27.69l-.11,3.14,2.52,1.88a.8.8,0,0,1-.26,1.42l-3,.86-1,3A.81.81,0,0,1,192.14,187.74Z" style="fill: rgb(0, 167, 170); transform-origin: 192.318px 182.295px;" id="eldcrz4l5bsmk" class="animable"></path><path d="M204.48,189.1a1.45,1.45,0,0,1-1.1,1.71,1.43,1.43,0,1,1,1.1-1.71Z" style="fill: rgb(224, 224, 224); transform-origin: 203.082px 189.411px;" id="elbrylbm5vigg" class="animable"></path><circle cx="477.69" cy="243.56" r="3.21" style="fill: rgb(224, 224, 224); transform-origin: 477.69px 243.56px;" id="el32jdso3vsbu" class="animable"></circle><path d="M53.85,224.66l4.5,3.44,5.38-1.76a1.44,1.44,0,0,1,1.81,1.85l-1.87,5.34L67,238.1a1.44,1.44,0,0,1-1.2,2.3l-5.66-.14-3.31,4.59a1.45,1.45,0,0,1-2.56-.44L52.65,239l-5.38-1.74a1.44,1.44,0,0,1-.38-2.56l4.65-3.22v-5.65A1.45,1.45,0,0,1,53.85,224.66Z" style="fill: rgb(0, 167, 170); transform-origin: 56.7752px 234.911px;" id="el3kl619bst0v" class="animable"></path><path d="M36.92,252.51a3.53,3.53,0,1,1,4.85,1.21A3.53,3.53,0,0,1,36.92,252.51Z" style="fill: rgb(224, 224, 224); transform-origin: 39.9484px 250.696px;" id="elxf3te1iuuce" class="animable"></path><path d="M315,191.89l-2.74,2.8.75,3.85a1,1,0,0,1-1.43,1.09l-3.51-1.75-3.43,1.91a1,1,0,0,1-1.48-1l.58-3.88-2.88-2.67a1,1,0,0,1,.52-1.73l3.87-.65,1.65-3.55a1,1,0,0,1,1.8,0l1.81,3.48,3.9.47A1,1,0,0,1,315,191.89Z" style="fill: rgb(0, 167, 170); transform-origin: 307.884px 192.832px;" id="el92r7z67hqte" class="animable"></path><path d="M297.31,177.87a2.45,2.45,0,1,1-1.25,3.23A2.44,2.44,0,0,1,297.31,177.87Z" style="fill: rgb(224, 224, 224); transform-origin: 298.3px 180.11px;" id="elz8kfzertw9" class="animable"></path><path d="M328,101.76l-.45,3.89,2.95,2.58A1,1,0,0,1,330,110l-3.84.77-1.54,3.61a1,1,0,0,1-1.79.1L320.94,111l-3.91-.35a1,1,0,0,1-.64-1.67l2.65-2.89-.87-3.82a1,1,0,0,1,1.39-1.14l3.57,1.63,3.36-2A1,1,0,0,1,328,101.76Z" style="fill: rgb(240, 240, 240); transform-origin: 323.5px 107.801px;" id="elgcckkfv5os4" class="animable"></path><path d="M256.51,61.91l-.45,3.89L259,68.38a1,1,0,0,1-.46,1.74l-3.84.77-1.54,3.61a1,1,0,0,1-1.8.1l-1.92-3.42-3.91-.35a1,1,0,0,1-.65-1.67l2.66-2.89-.88-3.82a1,1,0,0,1,1.4-1.14l3.56,1.63,3.37-2A1,1,0,0,1,256.51,61.91Z" style="fill: rgb(240, 240, 240); transform-origin: 251.984px 67.9537px;" id="el0y0qmv53ffo" class="animable"></path><path d="M185.24,100.86l-.45,3.9,3,2.58a1,1,0,0,1-.46,1.73l-3.84.78-1.54,3.6a1,1,0,0,1-1.8.1l-1.92-3.41-3.91-.35a1,1,0,0,1-.65-1.68l2.66-2.89-.88-3.82a1,1,0,0,1,1.4-1.13l3.56,1.63,3.37-2A1,1,0,0,1,185.24,100.86Z" style="fill: rgb(240, 240, 240); transform-origin: 180.765px 106.927px;" id="elaogd7oa83m" class="animable"></path></g></g><g id="freepik--character-3--inject-114" class="animable" style="transform-origin: 388.771px 253.138px;"><g id="freepik--Kid--inject-114" class="animable" style="transform-origin: 388.771px 253.138px;"><path d="M389.92,362c-.4-2,.75-4.75,1-6.79s-.13-5-1.39-6.58a1.5,1.5,0,0,0-.24-.31c-1.41-1.4-3.51-1.52-5.34-2a12.13,12.13,0,0,1-5.55-2.58,168.75,168.75,0,0,1-15.86-18.49c-5-7.25-9.85-12.72-14.9-14.81l57.43-51.53-41.32-3c0,.65-8.84-.65-14.69,5.5-4.36,4.59-27.79,34.4-31.62,43.3-3.56,8.26,0,14.11,4.38,17.8,9.34,7.86,19.5,14.44,29.57,21.35,7.81,5.37,16.49,10.92,21.81,19,2.82,4.28,4.09,10.68,4.59,16.39.14,1.56-.55,3.51-.51,4.91a5,5,0,0,0,2.15,3.9c1.1.8,2.64.54,3.9.05,3.36-1.29,8-6.47,9.32-9.81s.32-7.23-1.24-10.47A22.55,22.55,0,0,1,389.92,362Z" style="fill: rgb(200, 133, 106); transform-origin: 360.528px 322.241px;" id="ele739b3c2hi" class="animable"></path><path d="M382.24,358.62c-3.34-1.21-6.16-6.83-4.38-10.4a4.66,4.66,0,0,1,5.29-2.62c1.82.93,4.93.48,5.86,1.89Z" style="fill: rgb(69, 90, 100); transform-origin: 383.16px 352.051px;" id="elrju7s952xlf" class="animable"></path><path d="M389,347.49c-4.31-.44-7.85,6-6.58,12.34s2.1,9.88,1,15.2-4.35,12-3,13.54,4.49,1.11,6.66-.36,7.43-6.52,7.29-12.06a32.68,32.68,0,0,0-2.24-11.84c-1.26-3.5-.28-7,0-10.09S392,346.93,389,347.49Z" style="fill: rgb(55, 71, 79); transform-origin: 387.235px 368.489px;" id="el9fn6ug02scf" class="animable"></path><path d="M392.17,364.31c-1.26-3.5-.28-7,0-10.09.18-2,0-4.54-.94-5.86-1.6-.91-7.11,2.82-7,7.91s1.42,8.41,1.83,11.49-1.26,10.25-3.41,16c-1.73,4.61-.69,5.55-.21,5.75a7.28,7.28,0,0,0,4.71-1.3c2.17-1.48,7.43-6.52,7.29-12.06A32.68,32.68,0,0,0,392.17,364.31Z" style="fill: rgb(38, 50, 56); transform-origin: 388.066px 368.876px;" id="elx1qxru3clje" class="animable"></path><path d="M383.51,374.53c-2.26.24-5.17-.43-6.65-2l.45,6.48s-.09,2.23,3.91,3.45C381.22,382.47,383.51,378.09,383.51,374.53Z" style="fill: rgb(69, 90, 100); transform-origin: 380.185px 377.495px;" id="elch9fvy3hxi" class="animable"></path><path d="M336.5,333.62l3.66,2.54s.87-9,8-12.79S359.51,321,359.51,321s-1.84-3.42-3.36-4C351.69,316.37,337.76,318.37,336.5,333.62Z" style="fill: rgb(55, 71, 79); transform-origin: 348.005px 326.53px;" id="elrugs840ecud" class="animable"></path><path d="M347,257.58c-1.35,2.35-5.64,9.28-14.9,19.78s-17.5,23.54-17.5,33.08,6.17,12.26,8.85,14.81,6.59,7.17,8.44,8.37,4.6,0,4.6,0,.75-8.27,6.72-12.6a22.72,22.72,0,0,1,12.93-4s.46-3.11-1.6-4.59-3.09-2.09-3.09-2.09l53.64-51.39Z" style="fill: rgb(69, 90, 100); transform-origin: 359.845px 295.867px;" id="eltxv57cjukb" class="animable"></path><path d="M338.45,309s7.42-2.07,13,1.28l1.83-1.75A17.53,17.53,0,0,0,338.45,309Z" style="fill: rgb(55, 71, 79); transform-origin: 345.865px 308.695px;" id="elgeromgfk8m8" class="animable"></path><path d="M375.8,341.05s-9.82-10.86-13.23-15.8c-.86-1.25-1.72-2.43-2.57-3.57a58.17,58.17,0,0,0-1.46,9.5c-.29,4.47.89,7,3.87,9v0C365.31,342.24,371.91,342.57,375.8,341.05Z" style="fill: rgb(175, 97, 82); transform-origin: 367.149px 331.838px;" id="el2oqt5kaxxg6" class="animable"></path><path d="M427.42,298c1.27-1.27,4-1.13,5.78.54s3.33,3.34,6.19,4c4.49,1,10-.53,14,1.29s5.52,3.06,8.14,8.21,1.07,9-.46,9.2-24.37-7.55-24.37-7.55Z" style="fill: rgb(55, 71, 79); transform-origin: 445.181px 309.198px;" id="ely32cr4ddaqb" class="animable"></path><path d="M461.43,318.16c-1.25-7.72-6.48-12.26-10-13-4.06-.87-9.95.17-13.88-1.19s-5.95-4.95-10-5.3a6,6,0,0,0-5.91,3.22c-.78,1.36-.73,2.62-3.18,3.72-1.59.72-15.07,2.31-23,3.51,3.36-5.74,6.52-11.3,8.68-14.75,6.93-11.11,5-24.11,1-35.43l-16.94-3-17,26.26s-3.51,7.19-8.24,20.39c-4.11,11.46-4.59,17-5.06,24.23C357.55,331.23,363,336,363,336c4.07,2.83,11.88,3.53,22.27.45,7.09-2.1,13.79-6.28,20.46-9.47,4.41-2.12,13.25-6.27,16.6-7.21a37.15,37.15,0,0,1,10.4-1.15c4.39.07,8.93.42,11.78.62,4.67.34,9.18,1.88,13.25,2.76a4.24,4.24,0,0,0,2.7-.24C461.62,321.25,461.56,319,461.43,318.16Z" style="fill: rgb(200, 133, 106); transform-origin: 409.691px 297.201px;" id="elk5dulnm42da" class="animable"></path><path d="M447.11,304.62c-2.28,3.52-2,11.64-.22,14.94l6.33,1.37a19.89,19.89,0,0,1-.72-9.05c.86-4.56,2.41-5,2.41-5A10.3,10.3,0,0,0,447.11,304.62Z" style="fill: rgb(69, 90, 100); transform-origin: 450.194px 312.736px;" id="eln2g829l29kk" class="animable"></path><path d="M420.4,304.12c2.92,1.11,11.06,1,13.73-2.05,0,0-3.46-4.61-6.71-4.1S421.38,300.07,420.4,304.12Z" style="fill: rgb(69, 90, 100); transform-origin: 427.265px 301.347px;" id="elnk6gbfqead" class="animable"></path><path d="M400.41,308.37l2.7-.37s1.43,5.56-.56,13.68c-1.75,7.13-4.11,9.29-4.11,9.29l-6.28,3.12Z" style="fill: rgb(38, 50, 56); transform-origin: 397.884px 321.045px;" id="el8bm9lsbn9lr" class="animable"></path><path d="M406.69,256.3c2,5.68,7,19.94,2.66,30.95-3.84,9.83-11.93,20.43-11.93,20.43h1.93a1.14,1.14,0,0,1,1.15,1.1c.15,3.75.14,16.17-5.83,23.61a13.91,13.91,0,0,1-6.92,4.57c-3.31,1-9.23,2.54-13.92,2.66-10.31.27-16.93-2.73-17.45-11.78-.84-14.84,8.67-34.28,8.67-34.28a36.07,36.07,0,0,1-15-17.39A48.77,48.77,0,0,1,347,257.58Z" style="fill: rgb(69, 90, 100); transform-origin: 379.023px 297.968px;" id="elpzd6a24fjq" class="animable"></path><path d="M362.32,299.9l2.87-7s-10.54-6.11-13.11-15.31c.38,5.48,2.72,11,9.63,16.45l-1.15,6.49-5,5.84Z" style="fill: rgb(55, 71, 79); transform-origin: 358.635px 291.98px;" id="eliymo81lcelf" class="animable"></path><path d="M397.42,307.68S385,325.41,379.47,332.12a103.48,103.48,0,0,0,8.84-9,85.24,85.24,0,0,0,10.86-15.4Z" style="fill: rgb(55, 71, 79); transform-origin: 389.32px 319.9px;" id="ele55z4sixsze" class="animable"></path><path d="M348.68,234.43c-.86,7.11-2.56,14.61-1.67,23.15,8,8,17.25,9.69,30.49,9.69s25.12-5.45,29.19-11c0,0-3.07-11.46-3.51-18.67Z" style="fill: rgb(200, 133, 106); transform-origin: 376.725px 250.85px;" id="elz3e4rb0a7w" class="animable"></path><path d="M346.79,254.15a17.13,17.13,0,0,1-2.61,7.9s11,12.74,33.66,10.93,30.22-12.59,30.22-12.59l-2.28-7.71s-7.41,9.87-28.54,11S346.79,254.15,346.79,254.15Z" style="fill: rgb(55, 71, 79); transform-origin: 376.12px 262.918px;" id="el6go7ubx6y9m" class="animable"></path><path d="M367.22,259.44l0-.05,0,0,0,0s0,0-.07,0h-.11l-.11,0h-.18l-.25-.08-.13-.06-.07,0a1,1,0,0,1-.2-.15l-.09-.08,0,0h0s-.09-.11-.13-.17a.14.14,0,0,1,0-.06.25.25,0,0,1,0-.09v-.09h0v-.08s0-.06,0-.08a.3.3,0,0,0,0-.1c0-.1,0-.13,0-.08a1.34,1.34,0,0,1,.09-.26l.06-.11.12-.17.06-.06.14-.17a1.26,1.26,0,0,1,.2-.2.67.67,0,0,0,.22-.55c0-.14-.09-.41-.27-.41a1.45,1.45,0,0,0-.83.25,2.37,2.37,0,0,0-.51.54,2.44,2.44,0,0,0-.33,1.86,2.51,2.51,0,0,0,.87,1.45,2.24,2.24,0,0,0,.64.36,1.55,1.55,0,0,0,.76.11C367.45,260.61,367.54,259.8,367.22,259.44Z" style="fill: rgb(175, 97, 82); transform-origin: 366.094px 258.629px;" id="elaz175h1zjti" class="animable"></path><g id="freepik--Arm--inject-114" class="animable" style="transform-origin: 343.597px 170.275px;"><path d="M361.34,196.17c-4.86-2.6-8-6.2-11.44-10.86-5.22-7-6.33-8.91-6.33-8.91l-.16-25.63a13,13,0,0,1,3.1-8.46c.32-.38.66-.8,1-1.25a19.41,19.41,0,0,0,3.12-8.32c.11-1.21,1.56-3.58-.59-3.68a3.4,3.4,0,0,0-2.86,1.39c-.31.37-2.56,5.19-2.71,3.16.14-3.34,2.77-8.55,3.43-12.28.08-1.46.34-3.88-1.25-4.56-1.12-.24-1.83.92-2.18,1.82-1.56-.72-3,.21-4.2,1.18a5.84,5.84,0,0,1-1.78.24,3.15,3.15,0,0,0-2.66,2.59c-4.42-.15-5.29,7.72-5.93,11-.2,1.22-.38,2.45-.58,3.67a22.28,22.28,0,0,0-.25,6.05,19.73,19.73,0,0,1-.22,5.26c-.7,4-2.05,11.9-3.53,21.35-1.66,10.61-.64,13.23,2,17.78,2.11,3.59,2.57,3.83,8.56,14.25,3.73,6.5,9.53,13,11.35,20.06C349.32,229.88,367.73,210.16,361.34,196.17Z" style="fill: rgb(200, 133, 106); transform-origin: 343.597px 170.275px;" id="el5f01ajfjie" class="animable"></path><path d="M336.9,140.47a9.88,9.88,0,0,1,.94-2.53,7,7,0,0,1,4.07-3.58c.2-.06.17.19.08.28-.6.64-1.29,1.15-1.87,1.81a10,10,0,0,0-1.47,2.11,9,9,0,0,0-.83,2.26,7.08,7.08,0,0,0-.17,1.2,2.7,2.7,0,0,1-.2,1.17c-.09.17-.41.29-.52.07A4.43,4.43,0,0,1,336.9,140.47Z" style="fill: rgb(175, 97, 82); transform-origin: 339.374px 138.865px;" id="elp5kqvkw36q" class="animable"></path></g><path d="M406.07,246.52a58.91,58.91,0,0,1-1.3-17c1.42-6.8-2.29-21.22-3-23.57a15.33,15.33,0,0,0-5.2-7.45l-11.32-1.87-14-.58c-2.37,0-7.75-.11-9.9.07-8.24.59-14,12.11-14,27,0,8.3-1.84,16-2.51,23.37C360.32,261,401.26,254.1,406.07,246.52Z" style="fill: rgb(240, 240, 240); transform-origin: 375.455px 225.498px;" id="elt71tf75gnoj" class="animable"></path><path d="M347.35,223.15a79.71,79.71,0,0,1-.7,11.75c-.49,3.9-1.1,7.77-1.41,11.66l-.13-.33c3.95,3.6,9.1,5.61,14.3,6.78a64.69,64.69,0,0,0,7.95,1.23,80.29,80.29,0,0,0,8.06.28c2.69,0,5.38-.22,8.06-.51a76.45,76.45,0,0,0,8-1.22,56.83,56.83,0,0,0,7.79-2.14,25.8,25.8,0,0,0,3.69-1.62,9.08,9.08,0,0,0,3.13-2.51,8.68,8.68,0,0,1-3,2.68,26.42,26.42,0,0,1-3.66,1.8,50.68,50.68,0,0,1-7.78,2.4,78.54,78.54,0,0,1-16.16,2A63.83,63.83,0,0,1,359.2,254a40.63,40.63,0,0,1-7.78-2.6,25,25,0,0,1-6.85-4.53l-.15-.14,0-.19c.41-3.93,1.12-7.79,1.7-11.66A89.79,89.79,0,0,0,347.35,223.15Z" style="fill: rgb(224, 224, 224); transform-origin: 375.255px 239.304px;" id="el5b3alctnkcl" class="animable"></path><path d="M358.85,141.28c8.88-4.83,21.19-5.23,30-.41,7.65,4.18,11.89,11.47,10.12,17.58,6.52,3.73,4.18,13.48,1.2,16.84a108.26,108.26,0,0,1-11.85,11.61c-2.81,2.39-3.4,3.67-5.87,6.46-.81.91-.59,1.64-1.9,1s-11.89-2.32-12.81-3.39L364,186.53a41.19,41.19,0,0,1-6.43-9.43,17.11,17.11,0,0,1-1.63-3.56,51.89,51.89,0,0,1,1.66-7.16c-1.5,0-4.43-.78-5.33-3.41a6.06,6.06,0,0,1,.8-5.84c-2.18-.15-3.67-2.55-3.56-4.79a10.16,10.16,0,0,1,2.94-6A23.76,23.76,0,0,1,358.85,141.28Z" style="fill: rgb(38, 50, 56); transform-origin: 376.325px 166.026px;" id="elh1nrx41m3ek" class="animable"></path><path d="M397.73,177c6.11.33,7.16,5.23,7.21,9.2,4.63-.26,7.65,5,6.06,11.74,3.54.67,3.77,5.69,2,9,2.4.45,4.16,3.58,3.22,7.48,3.13-1.43,5.26,1.77,6.69,3.5.53-2.82,3.69-2.62,5.55-3.69a6.66,6.66,0,0,1,4.7-6.49c3.22-1.13.63-3.36.63-3.36s2.52,0,3.06,4.91-2.9,6.3-5.31,7.06c-.66,3.55-2.2,7.78-7.47,5.83-3.71,2.53-9.66.81-10.33-2.8-5-1.88-7.2-5.17-4.9-9.2-4.48-1.86-7.6-6.23-4.48-10.32-3.09-.15-8.16-4.22-5.55-8.45-7.47,1.91-10.61-1.62-12.09-5.11S397.73,177,397.73,177Z" style="fill: rgb(38, 50, 56); transform-origin: 411.752px 200.191px;" id="elv16gb9bsww" class="animable"></path><path d="M355,167.41c-.37,2.43-1.46,3.06-1.92,7s.71,7.23,3.24,10.77c2.21,3.09,6.73,5.27,10.9,5.88l1,.13-.37,5.75c-4.07,3.54-6.3,9.23,1.6,10.28,9.33,1.25,16-5.35,18.19-9.55l1.6-17.35s.95,2.16,4.55,1.42c2.37-.49,4.7-4,3.8-7.27a3.72,3.72,0,0,0-4-2.9c-2.76.17-3.17,2.25-4.86,3.12-3.17,1.64-2.88-3.44-2.88-5.43,0-5-5.35-8-2.43-16.43-8.79,5.43-20.4-1.68-24.64,1.26a9.6,9.6,0,0,0-3.13,4.38C354.13,162.4,355.43,164.59,355,167.41Z" style="fill: rgb(200, 133, 106); transform-origin: 375.385px 180.102px;" id="eln1qh93z44f" class="animable"></path><path d="M373.47,168.35a2,2,0,1,0,2.37-1.72A2.07,2.07,0,0,0,373.47,168.35Z" style="fill: rgb(38, 50, 56); transform-origin: 375.455px 168.598px;" id="ely1voewkph7d" class="animable"></path><path d="M379.16,165.46l-3.59-2a2.06,2.06,0,0,1,3.59,2Z" style="fill: rgb(38, 50, 56); transform-origin: 377.462px 163.994px;" id="elnwx182ved7h" class="animable"></path><path d="M361.72,161.13l-4.05,1.05a2.09,2.09,0,1,1,4.05-1.05Z" style="fill: rgb(38, 50, 56); transform-origin: 359.661px 160.869px;" id="el5v49oq2o86g" class="animable"></path><path d="M358.19,166.24a2,2,0,1,0,2.37-1.72A2.06,2.06,0,0,0,358.19,166.24Z" style="fill: rgb(38, 50, 56); transform-origin: 360.175px 166.488px;" id="elrung23jmdff" class="animable"></path><path d="M368.75,165.5l-2.5,8.93L361,172.16C363.28,168.57,366.45,165,368.75,165.5Z" style="fill: rgb(175, 97, 82); transform-origin: 364.875px 169.941px;" id="el9yu799kejz" class="animable"></path><path d="M368.22,191.18a25.71,25.71,0,0,0,11.58-2.06c2.1-.89,5.37-4.23,6.06-5.31,0,0-.95,4.32-3.2,6.18-4.94,4.09-14.62,4.11-14.62,4.11Z" style="fill: rgb(175, 97, 82); transform-origin: 376.95px 188.955px;" id="elev6yw1eol4f" class="animable"></path><path d="M373.63,177.89c-1.11-1.17-2.19.22-4.71.55s-3.94-1-4.47.54c-.44,1.3,1,4.15,5.22,3.87C373.24,182.62,374.61,178.94,373.63,177.89Z" style="fill: rgb(135, 76, 76); transform-origin: 369.156px 180.149px;" id="el3josw09vqml" class="animable"></path><path d="M368.92,178.44a33.43,33.43,0,0,0,3.49-1l0,1.13a5.48,5.48,0,0,1-2.77,1,7.48,7.48,0,0,1-4-.36l-.29-1.06A18.17,18.17,0,0,0,368.92,178.44Z" style="fill: rgb(250, 250, 250); transform-origin: 368.88px 178.567px;" id="eli2w27nv1hkh" class="animable"></path><path d="M369.67,182.85a7,7,0,0,1-2.27-.19,4.9,4.9,0,0,1,5-2.69,4.57,4.57,0,0,1,1.18.32A4.59,4.59,0,0,1,369.67,182.85Z" style="fill: rgb(255, 168, 167); transform-origin: 370.49px 181.402px;" id="el1jz1j63f4ql" class="animable"></path><g id="freepik--arm--inject-114" class="animable" style="transform-origin: 414.648px 175.065px;"><path d="M436.09,138.25c-.14-3-.14-9.31-3.66-10.19a5,5,0,0,0-1.33-2.16,3.14,3.14,0,0,0-2.56-.9,3.78,3.78,0,0,0-.59-1c-1.23-1.18-1.95-1.32-3.12-1-.26-.53-.1-.91-.72-1.67-1.3-1.52-3-.61-3.45,1.67s.48,7.87.76,11.82c.09.73.34,2.35,0,2.65-1.39.55-1.8-5-4.06-5.7-1-.86-3-.28-2.43,1.24.46,2.6.65,4.4,1.09,7.87.29,2.33,2.06,5,3.21,7.15a7.51,7.51,0,0,1,.75,4.54l-3.61,24.73a144.65,144.65,0,0,1-8.55,12.36c-4.86,6.34-8.8,9.1-11.21,8.78-3.58,4.3-4.92,15.39-1.13,23.08,2.77,5.61,5.65,8.35,9.31,8,2.88-5.64,6.26-9.93,10.81-16.28,6.76-9.45,12.52-15.08,16.08-20.74,2.68-4.25,2.8-5.72,2.93-11,.22-9.13,0-20.26-.08-25.77a23.57,23.57,0,0,1,.78-6.31,22.44,22.44,0,0,0,.71-5.65C436,142,436.09,140.12,436.09,138.25Z" style="fill: rgb(200, 133, 106); transform-origin: 414.648px 175.065px;" id="elajutzwpaaeu" class="animable"></path><path d="M422.81,139.08a3.67,3.67,0,0,1,2.49,1,7.25,7.25,0,0,1,1.88,2.1,6,6,0,0,1,.37,5.82c-.07.13-.23.1-.23,0,0-.85.07-1.69,0-2.54a7.44,7.44,0,0,0-.87-2.8,7.14,7.14,0,0,0-3.69-3.18C422.59,139.34,422.69,139.1,422.81,139.08Z" style="fill: rgb(175, 97, 82); transform-origin: 425.401px 143.583px;" id="elfy70r7i5974" class="animable"></path></g></g></g><g id="freepik--character-2--inject-114" class="animable" style="transform-origin: 248.817px 226.268px;"><g id="freepik--kid--inject-114" class="animable" style="transform-origin: 248.817px 226.268px;"><g id="freepik--Bottom--inject-114" class="animable" style="transform-origin: 250.18px 285.12px;"><path d="M225.86,203,239.77,217l8.87,21.37s-4.7,11.82-8.3,23.2c5,1.86,13.33,5.19,19.87,16.08,3.6,6,4.35,7.92,8.39,12.74,3.31,2,3.64,5.25,5.58,8.25a18.64,18.64,0,0,0,7.66,6.74c1.37.64,2.92,1.2,3.72,2.49A4.54,4.54,0,0,1,286,311c-.41,2.3-1.86,4.25-2.76,6.4a27.76,27.76,0,0,0-1.61,8.09,28.06,28.06,0,0,1-1.59,8.1,9.43,9.43,0,0,1-5.67,5.65,3.44,3.44,0,0,1-3.53-.63,4.65,4.65,0,0,1-.71-3.36,77.63,77.63,0,0,0-.25-10.23c-.28-3-.26-7.44-1.73-10.09-2.74-4.91-7.34-8.91-11.62-12.44-11.09-9.15-16.86-12.82-29-22.36-11.25-8.87-17.73-13.11-17.38-20.75.63-13.78,3.48-8.35,7.83-29.64C221.73,211.59,225.86,203,225.86,203Z" style="fill: rgb(255, 168, 167); transform-origin: 248.121px 271.237px;" id="elu23mq3jmm8h" class="animable"></path><path d="M218.84,203.25c-1.31,4.64-2.84,9.91-5.26,25.1-2,12.39-3.4,25.33-3.4,25.33s17,8.53,35.9.37l21-52.15Z" style="fill: rgb(55, 71, 79); transform-origin: 238.63px 229.742px;" id="elx531fe1o2nk" class="animable"></path><path d="M246.08,254.05a44.16,44.16,0,0,1-21.8,3.56l7.21-22.4s-10-7.69-7.37-18.65c2.67,5.65,17.81,15.68,17.81,15.68L247,251.8Z" style="fill: rgb(38, 50, 56); transform-origin: 235.34px 237.176px;" id="elep37nhiu4sp" class="animable"></path><path d="M247,252.89c-6.41,2.18-29.09,3.42-37-.91l-.54,8c7.59,3.71,23.05,5.61,34.53.18Z" style="fill: rgb(38, 50, 56); transform-origin: 228.23px 257.76px;" id="elt78y3l4tk8s" class="animable"></path><path d="M287.54,307.35a22.67,22.67,0,0,1,3.36,4.44s-.87,4-1.62,6.57l-6.66-6.11Z" style="fill: rgb(38, 50, 56); transform-origin: 286.76px 312.855px;" id="elva9zemmsyi" class="animable"></path><path d="M289.28,318.36,283,322.21s-2-3.89-1.85-6.2a6.47,6.47,0,0,1,1.46-3.76Z" id="elmiw68u0iqdn" class="animable" style="transform-origin: 285.211px 317.23px;"></path><path d="M271.14,343.65c.46.87,2.35,1.18,5.18-.54,4-2.45,9.09-7.72,9.82-14.08a39.29,39.29,0,0,0,0-8.13c-.13-3.09-.34-3.66,1.23-6.88s1.24-4.15,1-5.63c0,0-1.92-3-4-2.46S271.14,343.65,271.14,343.65Z" style="fill: rgb(38, 50, 56); transform-origin: 279.857px 325.109px;" id="el3bxwekpwt3i" class="animable"></path><path d="M287.54,307.35c.55,1.58-.62,4.79-1.83,7.73-1.6,3.91-.62,5.07-.84,11.78a17.94,17.94,0,0,1-5.18,11.77c-2.79,2.92-6.31,4.9-8.55,5-3-.76-4.56-2.21-3.89-6.61,1-6.79,1.52-13.93.77-17.51s-1.87-5.49-5.3-9.25c-.92-1-3.47-3.3-4.37-4.32-1.44-1.64-2.53-2.59-1.81-3.44l.73.68c2-.18,3.79-.65,8.17-4.82,2-1.91,4-4.78,4.14-6.81l-1-1.22c1.37-1,2.51.49,4.32,2.88,1.6,2.13,4.86,7.27,7.64,8.65C282.63,302.9,286.33,304.91,287.54,307.35Z" style="fill: rgb(69, 90, 100); transform-origin: 271.996px 316.822px;" id="el2o25jj7m1be" class="animable"></path><path d="M285.57,315.44c-7.11-4.21-7.05-10.11-5.34-13.75h0l.33.2c2.07,1,5.77,3,7,5.47.55,1.58-.62,4.79-1.83,7.73Z" style="fill: rgb(55, 71, 79); transform-origin: 283.487px 308.565px;" id="elnude1hy6rxg" class="animable"></path><path d="M284.45,330c-4.32-2.57-8.66-2.25-12-.09-3.12,2-5.17,3.53-5.7,7.6-.25,2,.76,6,4.47,6.25C274.59,343.64,283.7,337.45,284.45,330Z" style="fill: rgb(55, 71, 79); transform-origin: 275.582px 335.97px;" id="elmhz6sn3pzbs" class="animable"></path><path d="M268.08,330.45h0a.15.15,0,0,1-.12-.13c0-.89.46-3.23,2.54-6.36a10.93,10.93,0,0,0-2.06.73.16.16,0,0,1-.15,0,.14.14,0,0,1,0-.14,13.3,13.3,0,0,1,2.62-5.42,22.71,22.71,0,0,0-2.86,1,.15.15,0,0,1-.13,0,.19.19,0,0,1-.07-.11,10.2,10.2,0,0,1,1.56-5.64c-1,.12-2.13.28-3.33.49a.16.16,0,0,1-.13,0,.16.16,0,0,1,0-.13,23.11,23.11,0,0,1,1.44-4.19,17.1,17.1,0,0,1-4.68.06.13.13,0,0,1-.11-.08.12.12,0,0,1,0-.13s.87-1.57,1.91-3.6a14.33,14.33,0,0,1-5.88-.42.13.13,0,0,1-.09-.14.15.15,0,0,1,.12-.13c1.82-.22,6-2.64,9.11-6.59a.14.14,0,0,1,.18,0,.13.13,0,0,1,.06.17,55.36,55.36,0,0,1-3,6.82,27.88,27.88,0,0,0,5.62-1.29.14.14,0,0,1,.16.05.14.14,0,0,1,0,.17,27.7,27.7,0,0,0-2.92,4.81c.95-.14,1.93-.31,2.92-.49.78-.14,1.59-.29,2.41-.42a.15.15,0,0,1,.15.07.16.16,0,0,1,0,.16,41,41,0,0,0-3.35,4.56,26.94,26.94,0,0,1,5.66-.05.14.14,0,0,1,.12.09.14.14,0,0,1,0,.15,39,39,0,0,0-4.06,4.38,13.62,13.62,0,0,1,4.1-.48.14.14,0,0,1,.13.09.14.14,0,0,1,0,.15,32.48,32.48,0,0,0-4.63,5.14,10.9,10.9,0,0,1,6.11.45.14.14,0,0,1,.09.16.15.15,0,0,1-.14.11H277c-3.15,0-7.77,3.52-8.74,6.12A.15.15,0,0,1,268.08,330.45Zm2.8-6.58a15,15,0,0,0-2.6,5.7c1.37-2.44,5.14-5.26,8.13-5.58A11,11,0,0,0,270.88,323.87Zm.4-4.88a14.09,14.09,0,0,0-2.74,5.33,12.8,12.8,0,0,1,2.17-.7,32.07,32.07,0,0,1,4.59-5.21h-.21A15.07,15.07,0,0,0,271.28,319Zm-1.59-4.63a10.1,10.1,0,0,0-1.64,5.45,24.52,24.52,0,0,1,3.06-1.06,36.43,36.43,0,0,1,4.09-4.49A27.92,27.92,0,0,0,269.69,314.36Zm-2.07-3.88a23,23,0,0,0-1.45,4.09c1.21-.21,2.31-.37,3.35-.48a38.26,38.26,0,0,1,3.25-4.48c-.7.11-1.38.24-2,.35C269.67,310.15,268.64,310.34,267.62,310.48Zm-4.77-.15a17.66,17.66,0,0,0,4.58-.11,28.1,28.1,0,0,1,2.77-4.67,28.24,28.24,0,0,1-5.45,1.19C263.87,308.45,263.12,309.85,262.85,310.33Zm-3.68-4.08a16.71,16.71,0,0,0,5.4.23c1-2,2.12-4.32,2.82-6.19C264.59,303.58,261.12,305.71,259.17,306.25Z" id="elr8xs9bu496r" class="animable" style="transform-origin: 268.031px 314.981px;"></path><path d="M267.27,306.89a4.56,4.56,0,0,1-4.15-2.92.17.17,0,0,1,0-.12.13.13,0,0,1,.1-.06c2.25-.35,4.27,0,5.15.82a1.44,1.44,0,0,1,.48,1.25c-.07.56-.53.93-1.27,1A1.67,1.67,0,0,1,267.27,306.89ZM263.44,304a4.27,4.27,0,0,0,4.12,2.56c.35,0,.95-.2,1-.77a1.19,1.19,0,0,0-.39-1C267.4,304.06,265.51,303.76,263.44,304Z" id="elvnbs4wr1n3" class="animable" style="transform-origin: 265.984px 305.272px;"></path><path d="M264.14,309.55a1.7,1.7,0,0,1-1.31-.82,4.27,4.27,0,0,1,.32-4.9.14.14,0,0,1,.18,0c1.71,1.21,2.4,2.56,2.18,4.26a1.66,1.66,0,0,1-1.09,1.45Zm-.87-5.43a4,4,0,0,0-.21,4.44c.39.55.85.79,1.29.68a1.35,1.35,0,0,0,.88-1.21A4,4,0,0,0,263.27,304.12Z" id="elqb6fftoqg2l" class="animable" style="transform-origin: 263.878px 306.674px;"></path><path d="M218.41,359.41c10.79-7.85,13.64-11.7,11.72-26.08-.5-3.72-.11-2.42-1.77-9.39,0,0-2.25-11.65-4.16-22-3.24-17.61-3.91-21.07-1.4-30.19,4.74-17.19,6.42-20,11.64-38.54-11.38-8.05-11.4-16.93-9.63-30,6.57,2.73,14.45,3.18,21.34,3.3s13.81.13,20.29-2.13c12,25.34,8.48,33.08-5.05,57.48-7,12.55-15,26.58-15,26.58,1,2.83,1.58,7.47.57,17.6-.65,6.57-1.86,15.88-1.57,24.45.11,3.39,1.21,4.85,3.22,7.39,2.84,3.59,2.65,7.31-.15,11.31-6.6,3.46-10.86,12.76-17.68,16C226.15,366.61,212.2,367,218.41,359.41Z" style="fill: rgb(255, 196, 195); transform-origin: 245.3px 284.61px;" id="el049pwukk75up" class="animable"></path><path d="M273.77,203s.66,9.87,1.25,16.73c.55,6.33.84,11.76-1.58,19-2.71,8.14-18.43,34.93-18.43,34.93-12.13-12.67-24-13.13-29.92-11.64l8.61-28.56s-16.81-5.65-9.75-30.61Z" style="fill: rgb(69, 90, 100); transform-origin: 248.809px 238.255px;" id="elwisgum5i5cp" class="animable"></path><path d="M258.58,232.5c-3.39-3-5.4-10-6-20.68l.72,0c.55,10.37,2.54,17.35,5.73,20.19a5.55,5.55,0,0,0,3.9,1.47c2.09-10.06-.08-17.5-2-24.07-.54-1.82-1-3.54-1.45-5.27l.69-.17c.41,1.72.91,3.43,1.44,5.24,2,6.71,4.19,14.32,2,24.7-1.09,5-11,25.82-14.34,34.26l-.61-.4c3.25-8.12,13-28.58,14.15-33.58h-.36A6.24,6.24,0,0,1,258.58,232.5Z" style="fill: rgb(38, 50, 56); transform-origin: 256.591px 236.07px;" id="elwiqjwfp6h3a" class="animable"></path><path d="M256.79,271.35l-4.19,6.8s-2.16-6.7-11.6-10.26c-6.82-2.57-14.29-2.14-17.47-.85l2.24-8.06s6.63-3.06,17,.32S255.22,268.19,256.79,271.35Z" style="fill: rgb(55, 71, 79); transform-origin: 240.16px 267.93px;" id="el91ue59alw0q" class="animable"></path><path d="M251.28,344.92a22.16,22.16,0,0,1,.31,5.56s-2.94,2.81-5,4.54l-2.12-8.79Z" style="fill: rgb(38, 50, 56); transform-origin: 248.057px 349.97px;" id="el2ydtn6621c5" class="animable"></path><path d="M246.59,355l-7.36-.31s.53-4.32,1.92-6.17a6.54,6.54,0,0,1,3.32-2.31Z" id="elt2zjqdqdp6" class="animable" style="transform-origin: 242.91px 350.605px;"></path><path d="M217.41,365.87c-.1,1,1.29,2.29,4.6,2.45,4.72.22,11.85-1.33,16-6.2a39,39,0,0,0,4.54-6.75c1.61-2.64,1.76-3.23,4.85-5s3.35-2.74,4-4.11c0,0,.1-3.6-1.93-4.26S217.41,365.87,217.41,365.87Z" style="fill: rgb(38, 50, 56); transform-origin: 234.403px 355.164px;" id="elme5tn5ujpw" class="animable"></path><path d="M251.28,344.92c-.42,1.61-3.18,3.62-5.83,5.39-3.51,2.35-3.35,3.86-7.27,9.3a18,18,0,0,1-10.87,6.88c-3.95.86-8,.54-9.9-.62-2.09-2.32-2.55-4.38.47-7.65,4.65-5.05,9-10.71,10.41-14.1s1.52-5.6.77-10.63c-.2-1.35-1-4.67-1.21-6-.28-2.16-.66-3.55.42-3.86l.23,1c1.77,1,3.5,1.57,9.46.56,2.74-.47,6.26-1.71,7.54-3.29l.11-1.75c1.72-.09,1.26,1.95,1.43,4.94.15,2.66,0,8.75,1.52,11.44C249.7,338.49,251.64,342.22,251.28,344.92Z" style="fill: rgb(69, 90, 100); transform-origin: 233.526px 343.563px;" id="eltbpiuztmzkd" class="animable"></path><path d="M245.14,350.53c-3.55-7.46-.21-12.33,3.24-14.39h0a3.59,3.59,0,0,0,.17.34c1.14,2,3.08,5.74,2.72,8.44-.42,1.61-3.18,3.62-5.83,5.39Z" style="fill: rgb(55, 71, 79); transform-origin: 247.468px 343.335px;" id="elqwc08djeh18" class="animable"></path><path d="M236.06,362c-2.16-4.54-5.94-6.69-9.9-6.76-3.71-.06-6.26,0-9,3.12-1.31,1.49-2.75,5.44.21,7.69C220.27,367.79,231.29,367.75,236.06,362Z" style="fill: rgb(55, 71, 79); transform-origin: 225.846px 361.141px;" id="el8gnmkekgwvw" class="animable"></path><path d="M222.32,353.24a.14.14,0,0,1-.09,0,.15.15,0,0,1,0-.18c.47-.76,2.19-2.43,5.66-3.86a10.59,10.59,0,0,0-2.12-.54.14.14,0,0,1-.11-.09.14.14,0,0,1,0-.15,13.35,13.35,0,0,1,5.2-3,26.93,26.93,0,0,0-2.94-.74.13.13,0,0,1-.11-.08.12.12,0,0,1,0-.13,10.05,10.05,0,0,1,4.44-3.8c-.92-.48-1.93-1-3-1.46a.16.16,0,0,1-.08-.1.15.15,0,0,1,0-.13,23.6,23.6,0,0,1,3.54-2.67,17.11,17.11,0,0,1-3.92-2.56.15.15,0,0,1,0-.13.12.12,0,0,1,.07-.1s1.61-.82,3.6-1.92a14.76,14.76,0,0,1-4.65-3.63.15.15,0,0,1,0-.17.14.14,0,0,1,.17,0c1.63.83,6.45,1.16,11.24-.38a.14.14,0,0,1,.17.07.13.13,0,0,1,0,.17,55.92,55.92,0,0,1-6.32,4,27.69,27.69,0,0,0,5.39,2.07.14.14,0,0,1,.1.13.13.13,0,0,1-.09.14,28.06,28.06,0,0,0-5.11,2.36c.87.42,1.77.82,2.69,1.22.73.32,1.48.65,2.24,1a.16.16,0,0,1,.08.14.17.17,0,0,1-.1.13,40.79,40.79,0,0,0-5.33,1.9,28.11,28.11,0,0,1,4.73,3.13.12.12,0,0,1,0,.14.12.12,0,0,1-.11.1,38.57,38.57,0,0,0-5.81,1.37,13.59,13.59,0,0,1,3.67,1.89.15.15,0,0,1,0,.14.15.15,0,0,1-.12.11,32.22,32.22,0,0,0-6.71,1.68,10.9,10.9,0,0,1,4.82,3.78.14.14,0,0,1-.19.19c-2.54-1.89-8.53-1.57-10.85.08A.11.11,0,0,1,222.32,353.24Zm5.92-3.93a15,15,0,0,0-5.34,3.29c2.5-1.26,7.2-1.49,9.86-.09A11,11,0,0,0,228.24,349.31Zm-2.19-.92a12.31,12.31,0,0,1,2.2.63,32.1,32.1,0,0,1,6.71-1.76,14.79,14.79,0,0,0-3.67-1.77A14,14,0,0,0,226.05,348.39Zm2.12-4a24.31,24.31,0,0,1,3.12.83,36.69,36.69,0,0,1,5.9-1.44,28.21,28.21,0,0,0-4.62-3A10.1,10.1,0,0,0,228.17,344.37Zm1.36-5.4c1.11.51,2.12,1,3,1.48a39.93,39.93,0,0,1,5.2-1.91l-1.89-.84c-1-.43-1.95-.86-2.87-1.31A23.6,23.6,0,0,0,229.53,339Zm-.39-5.37a17.92,17.92,0,0,0,3.86,2.47,28.35,28.35,0,0,1,4.9-2.33,28.33,28.33,0,0,1-5.18-2.05C231,332.62,229.63,333.35,229.14,333.6Zm-.77-5.44a16.62,16.62,0,0,0,4.35,3.21c1.92-1.08,4.17-2.4,5.8-3.56C234.36,329,230.29,328.8,228.37,328.16Z" id="elldokos3lryi" class="animable" style="transform-origin: 230.811px 340.386px;"></path><path d="M235.82,333.61a1.83,1.83,0,0,1-.82-.23,4.55,4.55,0,0,1-2.09-4.9.14.14,0,0,1,.08-.09.13.13,0,0,1,.12,0c2.06,1,3.56,2.37,3.82,3.56a1.45,1.45,0,0,1-.31,1.3A1,1,0,0,1,235.82,333.61Zm-2.67-4.89a4.24,4.24,0,0,0,2,4.41,1,1,0,0,0,1.28-.06,1.18,1.18,0,0,0,.24-1.06C236.42,330.94,235,329.64,233.15,328.72Z" id="elpvpiq6nujs" class="animable" style="transform-origin: 234.886px 330.993px;"></path><path d="M231.3,333.87a1.14,1.14,0,0,1-.41-.07,1.53,1.53,0,0,1-.87-1.54,4.26,4.26,0,0,1,3-3.88.14.14,0,0,1,.16.09c.74,1.95.56,3.46-.57,4.74A1.83,1.83,0,0,1,231.3,333.87Zm1.66-5.18a4,4,0,0,0-2.66,3.57,1.28,1.28,0,0,0,.69,1.28,1.36,1.36,0,0,0,1.41-.52A4,4,0,0,0,233,328.69Z" id="el7h4eeekkzcp" class="animable" style="transform-origin: 231.818px 331.124px;"></path></g><g id="freepik--Top--inject-114" class="animable" style="transform-origin: 248.817px 155.363px;"><path id="freepik--Hair--inject-114" d="M269.17,107.13c-3.53-1.1-8.12-1-11.68-.61a12.1,12.1,0,0,0-7.92,3.63c-1.15,1.15-2,2.53-3.14,3.7s-2.32,1.25-3.55,1.93a14.25,14.25,0,0,1-2.82,1,12.82,12.82,0,0,0-5.49,2.89,8.94,8.94,0,0,0-2.39,4.83c-.35,1.41-.58,3.43-1.64,4.5-.82.82-2.15.71-3.21.87a9.08,9.08,0,0,0-4.16,1.43A8.08,8.08,0,0,0,220,137a11.57,11.57,0,0,0,.42,3.84,6.2,6.2,0,0,1-1.59,5c-2.53,2.83-4.83,5.32-4.32,9.41.42,3.29,2.7,7.88,5.6,9.53,3.26,1.87,6.24,1.29,9.75,1.42a13.1,13.1,0,0,1,7.62,2.9c2.24,1.86,4.72,4.7,7.54,5.65,3.46,1.18,6.59-.08,9.85-1.25s6.38-2.15,9.76-.87c2.62,1,5.07,2.91,8,2.28,3.19-.67,4.64-3.34,6.65-5.5,3.23-3.48,8.93-2.75,11.36-7.28a11.31,11.31,0,0,0,1-5.8c-.13-4.07-5.2-6.4-4.3-10.53.57-2.61,1.62-4.16,1.22-7-.31-2.18-1.67-3.47-3.1-5.09-1.77-2-3.84-3.52-4.29-6.31-.52-3.17,1.12-8.24.3-11.49-1.34-5.31-6-8.5-11.87-8.7A2,2,0,0,1,269.17,107.13Z" style="fill: rgb(240, 153, 122); transform-origin: 253.063px 140.736px;" class="animable"></path><g id="freepik--arm--inject-114" class="animable" style="transform-origin: 215.773px 131.811px;"><path d="M218,116.56c.64-2,3-3.22,5.58-5.38a18.84,18.84,0,0,0,4.63-7.34c.35-1.14,2.21-3.12.17-3.64a3.29,3.29,0,0,0-3,.76c-.37.29-3.48,4.45-3.23,2.48.8-3.17,4.36-7.63,5.73-11.07.38-1.38,1.1-3.65-.29-4.61-1-.46-1.93.51-2.44,1.31-1.36-1-3-.41-4.26.29a5.47,5.47,0,0,1-1.75-.13,3.09,3.09,0,0,0-3.06,2c-4.21-1-6.6,6.34-7.88,9.37-.42,1.13-.84,2.26-1.28,3.39-1.7,4.39-.91,4.71-1.64,8.08-.83,2.41-2,4.54-5.63,12.93-3.6,8.22-4.08,10-5.17,13.86-1.49,5.26.86,7.58,8.44,14.57,12.23,11.26,15.18,13.13,20.35,22.55l14.22-23.05c-5.2-1.4-6.35-2.26-9.18-4.18-10-6.78-12.65-9.09-15.2-11.47C213.05,137.23,216.89,120.53,218,116.56Z" style="fill: rgb(255, 196, 195); transform-origin: 215.773px 131.811px;" id="el28cbjgykl1m" class="animable"></path></g><path d="M213.18,137.16s.73-3.66,1.75-8c0,0-2.87,1.7-8.56-.23s-6-5.66-6-5.66c-.24.54-.49,1.1-.75,1.7-3.6,8.22-4.27,10.12-5.36,14-1.5,5.26.87,7.58,8.45,14.57,11.06,10.18,14.71,12.84,19.09,20.18h0s1.7-6.6,5.26-10.13a21.54,21.54,0,0,1,6.28-3.88l4.28-6.9a28.08,28.08,0,0,1-9.27-4.25A136.32,136.32,0,0,1,213.18,137.16Z" style="fill: rgb(55, 71, 79); transform-origin: 215.727px 148.495px;" id="elxo0ce8t49hj" class="animable"></path><g id="freepik--arm--inject-114" class="animable" style="transform-origin: 216.25px 107.497px;"><path d="M213.48,108.51a9,9,0,0,1,1.4-2.24,6.84,6.84,0,0,1,4.61-2.62c.2,0,.12.21,0,.29-.7.48-1.47.84-2.16,1.35a10.64,10.64,0,0,0-1.82,1.73,8.45,8.45,0,0,0-1.24,2,8.82,8.82,0,0,0-.41,1.12,2.6,2.6,0,0,1-.42,1.08c-.12.14-.45.19-.52,0A4.34,4.34,0,0,1,213.48,108.51Z" style="fill: rgb(255, 168, 167); transform-origin: 216.25px 107.497px;" id="el0s7ht7zxbq4" class="animable"></path></g><g id="freepik--Chest--inject-114" class="animable" style="transform-origin: 247.961px 189.643px;"><path d="M278.73,183.43c3.57-13.41-.68-11.2-1.75-15.61s-2.18-9.28-6.36-11.24c0,0-12.88-2.15-14.54-2.38a119,119,0,0,0-14.39-1.34c-3.6-.07-5.5-.6-8.77,1.65s-9.23,6.86-11.28,20c-2.89,18.4-4.79,26.41-5.85,38.14C219.51,223.35,248,232,276,222.34a138.84,138.84,0,0,1-1.55-16.18C274.42,201.2,276.28,192.64,278.73,183.43Z" style="fill: rgb(0, 167, 170); transform-origin: 247.961px 189.643px;" id="elf2nkbc7v1a" class="animable"></path></g><path d="M277,167.82c-1.06-4.33-2-9.34-6.18-11.29l-2-.31h0a31.35,31.35,0,0,0-4.27-.91c-3.73-.6-7.52-1-8.43-1.11a121.54,121.54,0,0,0-14.39-1.38c-3.6-.08-5.74-.56-9,1.69s-8.8,6.47-10.83,18.81c.26-.95,1.93-6.56,5.18-9.79,3.56-3.53,11.22-5.69,11.22-5.69s-.29,2.48,3.1,4.61c4,2.48,13.59,1.71,17.72-1.31l8.24,10.63s4.68,11.39,11.42,11.66C282.3,170,278.05,172.23,277,167.82Z" style="fill: rgb(69, 90, 100); transform-origin: 251.025px 168.076px;" id="el3tho2dkbqlp" class="animable"></path><g id="freepik--arm--inject-114" class="animable" style="transform-origin: 285.11px 133.922px;"><path d="M303.38,136.45c-.94-12.11-2.7-20.51-2.58-23.14s1.07-3.53.63-8.22c-.16-1.78-.27-3.57-.46-5.35-.42-2.86-1-8.87-4.47-9.37A4.74,4.74,0,0,0,295,88.45a3.06,3.06,0,0,0-2.53-.62,3.72,3.72,0,0,0-.66-.89c-1.29-1-2-1.07-3.07-.64-.3-.47-.19-.85-.85-1.52-1.38-1.32-2.91-.29-3.12,1.93s1.21,7.45,1.86,11.19c.16.69.55,2.21.24,2.53-1.27.66-2.2-4.57-4.42-5-1.06-.73-2.87,0-2.2,1.42.69,2.43,1,4.13,1.8,7.4s4.45,6.13,5,9.11c.74,4.19-.71,21.89-.71,21.89s-2.77,5-7.21,12.22c-4,6.52-6.37,8.28-10.25,8.86-3,4.45-3.3,15.07,1.05,22,3.18,5.08,5.32,5.77,8.79,5.11,2.19-5.64,4.69-8.19,8.95-14.33,6.64-9.56,11.11-16.17,14-21.91C303.79,142.88,303.76,141.47,303.38,136.45Z" style="fill: rgb(255, 196, 195); transform-origin: 285.11px 133.922px;" id="ellj1h2xi69kj" class="animable"></path><path d="M288.4,101.81a3.49,3.49,0,0,1,2.46.67,7,7,0,0,1,2,1.83,5.7,5.7,0,0,1,.91,5.51.11.11,0,0,1-.22,0c-.11-.81-.09-1.62-.27-2.42a7,7,0,0,0-1.09-2.59,6.9,6.9,0,0,0-3.83-2.67C288.21,102.08,288.29,101.84,288.4,101.81Z" style="fill: rgb(255, 168, 167); transform-origin: 291.195px 105.86px;" id="eltwpqxl14j6" class="animable"></path></g><path d="M301.86,147.24c2.3-4.16,2.14-4.61,1.61-10.43-.15-1.62-.36-3.54-.51-5-2.5,1.64-12.78,2.11-16.18-2.64h0c-.22,3.46-.54,6-.54,6s-2.92,5-7.35,12.18c-4,6.52-6.23,8.35-10.11,8.94-3.16,4.37-3.52,15.14.83,22.1,3.18,5.08,5.65,5.77,9.12,5.11,2.19-5.64,4.84-8.1,9.11-14.24A258,258,0,0,0,301.86,147.24Z" style="fill: rgb(55, 71, 79); transform-origin: 285.089px 156.44px;" id="elbnbgcqj1hoe" class="animable"></path><g id="freepik--Head--inject-114" class="animable" style="transform-origin: 253.532px 130.305px;"><path d="M233.6,106.24c-6.3,8.33-3.22,16.9-1.32,18.54l30,23.83c2.65-4.63,9.89-3,14.86-16,2.24-5.88,2.23-15.22-2.9-19C272,99.21,244.22,92.2,233.6,106.24Z" style="fill: rgb(240, 153, 122); transform-origin: 254.198px 123.607px;" id="el56sike0itso" class="animable"></path><path d="M268.62,142a8.14,8.14,0,0,0,4.26-3.42c1.42-2.14,1.73-5.5,1.06-6.95a4.93,4.93,0,0,0-4.72-2.78,4.05,4.05,0,0,0-3.29,2.13c-.54.75-1.52,2.71-2.64,2.23-1.66-.71-.65-4.08-.51-5.77.82-10.13-6.46-15.39-14.29-15.5-6.91-3.77-12.25-.61-15.15,4.24-2.16,3.63-1.24,7.84-1.64,9a18.83,18.83,0,0,0-2,5.53c-.74,3.26-1.12,7.09,1.45,11.38,2,3.31,6.11,6.21,11.18,7.2h0l-.53,6.16c-7.38,6.3,11.93,10.35,19.41,1.21l2.2-16.29A5.9,5.9,0,0,0,268.62,142Z" style="fill: rgb(255, 196, 195); transform-origin: 251.714px 136.141px;" id="eldavk7weh31o" class="animable"></path><path d="M240.2,131c-.46,2.09,3.85,3.46,5.1,1.55,1.24-1.31.41-4.83-1.81-3.89-.45.31-.88.66-1.34,1C241.44,129.91,240.43,130.07,240.2,131Z" style="fill: rgb(255, 168, 167); transform-origin: 243.021px 130.982px;" id="elzw8o0bqmlq" class="animable"></path><path d="M240.78,132.4a.34.34,0,0,1,.19-.07.61.61,0,0,1,.3,0,.71.71,0,0,1,.3.15.85.85,0,0,1,.17.16,1.48,1.48,0,0,1,.19.35.41.41,0,0,1,0,.16h0a3.39,3.39,0,0,1-1.21-.72A.21.21,0,0,1,240.78,132.4Z" style="fill: rgb(177, 102, 104); transform-origin: 241.329px 132.731px;" id="elf5tdzr1svmb" class="animable"></path><path d="M243.1,133.4a.3.3,0,0,1,.05-.15,1.26,1.26,0,0,1,.26-.31.76.76,0,0,1,.19-.12.91.91,0,0,1,.33-.1.92.92,0,0,1,.29,0,.28.28,0,0,1,.17.11.26.26,0,0,1,.05.24.54.54,0,0,1-.05.11,3.07,3.07,0,0,1-1.29.19Z" style="fill: rgb(177, 102, 104); transform-origin: 243.775px 133.054px;" id="elhf72z7yl9v8" class="animable"></path><path d="M242.34,149.26a27.28,27.28,0,0,0,12.89-.93,12,12,0,0,0,6.13-5.63,7.69,7.69,0,0,1-4.26,7.17c-5.76,3.08-15,2-15,2Z" style="fill: rgb(255, 168, 167); transform-origin: 251.733px 147.377px;" id="el4rv2nmd7u0k" class="animable"></path><path d="M239.44,121l-4.22.49a2.12,2.12,0,1,1,4.22-.49Z" style="fill: rgb(38, 50, 56); transform-origin: 237.323px 120.303px;" id="elfy3dsx83w9" class="animable"></path><path d="M257.75,125.28l-3.87-1.78a2.13,2.13,0,0,1,3.87,1.78Z" style="fill: rgb(38, 50, 56); transform-origin: 255.907px 123.781px;" id="elrrgvgvsx5f" class="animable"></path><path d="M239.08,126.83a2.31,2.31,0,0,1-2.66.74,1.92,1.92,0,0,1-1.29-2.39,3.08,3.08,0,0,1,2.46-.1A2.6,2.6,0,0,1,239.08,126.83Z" style="fill: rgb(38, 50, 56); transform-origin: 237.065px 126.298px;" id="elebtz660jg4v" class="animable"></path><path d="M235.66,125c-.37.09-.83-.37-.77-.57-.2.28-.33,1,.22,1.22S235.66,125,235.66,125Z" style="fill: rgb(38, 50, 56); transform-origin: 235.189px 125.058px;" id="ell9akw8an9ri" class="animable"></path><path d="M238.23,128.43a3.86,3.86,0,0,1-1.07.12,3.53,3.53,0,0,1-1.11-.26,2.18,2.18,0,0,1-1.5-1.75c0-.05-.06,0-.06,0a2,2,0,0,0,1.44,2.16,2.31,2.31,0,0,0,2.3-.22S238.27,128.42,238.23,128.43Z" style="fill: rgb(255, 168, 167); transform-origin: 236.362px 127.713px;" id="elo3igxs997tp" class="animable"></path><path d="M237.7,124.31a3.29,3.29,0,0,0-1.07-.26,1.92,1.92,0,0,0-1.17.25s0,.09,0,.09a5.17,5.17,0,0,0,.56,0,4.68,4.68,0,0,1,.53,0,3.92,3.92,0,0,1,1.06.25,2.64,2.64,0,0,1,.81.51,3.37,3.37,0,0,1,.72.82s.05,0,.05,0A2.52,2.52,0,0,0,237.7,124.31Z" style="fill: rgb(255, 168, 167); transform-origin: 237.325px 125.005px;" id="elpf59svudcsc" class="animable"></path><path d="M249.78,137.93c-1-1.43-2.39-.11-5.16-.15s-4.09-1.7-4.9-.11c-.68,1.33.46,4.63,5,5C248.62,143,250.68,139.21,249.78,137.93Z" style="fill: rgb(135, 76, 76); transform-origin: 244.764px 139.836px;" id="el55m9yxsw0vq" class="animable"></path><path d="M244.62,137.78a37.63,37.63,0,0,0,3.92-.51l-.15,1.22a6,6,0,0,1-3.15.69,8.16,8.16,0,0,1-4.22-1l-.15-1.19A20.06,20.06,0,0,0,244.62,137.78Z" style="fill: rgb(250, 250, 250); transform-origin: 244.705px 138.09px;" id="elcvfjdc3e40s" class="animable"></path><path d="M244.73,142.66a7.23,7.23,0,0,1-2.4-.57,5.31,5.31,0,0,1,5.79-2.11,5.53,5.53,0,0,1,1.22.52A5,5,0,0,1,244.73,142.66Z" style="fill: rgb(255, 168, 167); transform-origin: 245.835px 141.236px;" id="elx5hegq78ym" class="animable"></path><path d="M228.5,130.39a2.8,2.8,0,1,0,2.81-2.78A2.79,2.79,0,0,0,228.5,130.39Z" style="fill: rgb(255, 168, 167); transform-origin: 231.3px 130.41px;" id="eludk4kfua34e" class="animable"></path><path d="M251.55,128.79a2.29,2.29,0,0,0,2.18,1.69c1.12.08,2.18-.89,2.09-1.73a3.11,3.11,0,0,0-2.29-1A2.43,2.43,0,0,0,251.55,128.79Z" style="fill: rgb(38, 50, 56); transform-origin: 253.688px 129.117px;" id="elavqvixwq0qo" class="animable"></path><path d="M255.36,128.39c.35.16.88-.21.87-.42.14.31.13,1-.45,1.16S255.36,128.39,255.36,128.39Z" style="fill: rgb(38, 50, 56); transform-origin: 255.822px 128.56px;" id="elnwq6srwpqx" class="animable"></path><path d="M251.74,130.59a3.32,3.32,0,0,0,.94.52,3.56,3.56,0,0,0,1.13.17,2.14,2.14,0,0,0,2-1.06s.06,0,.06,0a2,2,0,0,1-2.15,1.46,2.33,2.33,0,0,1-2-1.07S251.71,130.57,251.74,130.59Z" style="fill: rgb(255, 168, 167); transform-origin: 253.794px 130.956px;" id="elybbawpmy7k" class="animable"></path><path d="M253.64,127a3.07,3.07,0,0,1,1.09.17,1.9,1.9,0,0,1,1,.67s0,.09,0,.09-.34-.15-.51-.22a4.94,4.94,0,0,0-.49-.19,4.11,4.11,0,0,0-1.07-.17,2.79,2.79,0,0,0-1,.16,3.83,3.83,0,0,0-1,.49s0,0,0-.06A2.54,2.54,0,0,1,253.64,127Z" style="fill: rgb(255, 168, 167); transform-origin: 253.695px 127.499px;" id="el1hjo4wqst8z" class="animable"></path><path d="M260.08,135.37a2.79,2.79,0,1,1-1.77-3.53A2.8,2.8,0,0,1,260.08,135.37Z" style="fill: rgb(255, 168, 167); transform-origin: 257.432px 134.489px;" id="elenkbo98iord" class="animable"></path><path d="M243.13,106.74c-4.29.66-8.87,2.26-11.1,6.24a6.17,6.17,0,0,0-1,2.41c0,.39.6.5.9.61a22.91,22.91,0,0,0,5.88,1,.9.9,0,0,0,1.09-.59,11.23,11.23,0,0,1,1.33-2.38c.29-.38,1.14-1.4,1.07-.52a20.58,20.58,0,0,0-.22,4,1.49,1.49,0,0,0,.81.91c2.32,1.33,6.5,2,7.51,2.14a4.29,4.29,0,0,0,1.91,0c.8-.42,1.08-1.68,1.23-4.32,0-.3,0-.53.15-.57.77.17,1.44,3.24,1.52,3.71s.07,1,1.45,1.28a16.05,16.05,0,0,0,7.23.19c.13,0,.36,0,.46-.11a2.38,2.38,0,0,0,.25-1.21c.1-2.1-1.15-3.88-2.4-5.46a20.42,20.42,0,0,0-4.41-4.13C251.55,106.86,247.89,106.24,243.13,106.74Z" style="fill: rgb(240, 153, 122); transform-origin: 247.318px 113.879px;" id="elfccztayeder" class="animable"></path></g></g></g></g><g id="freepik--character-1--inject-114" class="animable" style="transform-origin: 108.803px 248.762px;"><g id="freepik--kid--inject-114" class="animable" style="transform-origin: 108.803px 248.762px;"><g id="freepik--bottom--inject-114" class="animable" style="transform-origin: 108.803px 314.496px;"><path d="M156.23,345.2c-1.75,4-4.1,9.25-2.76,14.94,2.16,9.27,6.33,18.64,8.09,21.1s-.17,4-5.31,4.28a15,15,0,0,1-13.71-7.86c-2.72-5.27-4.51-10.19-6.71-12.61s-1.64-6.2.33-10c.69-1.34,2.91-5.77,3.7-7.63,1.14-7.37,2.61-18.06,2.61-18.06l18.62,4.58S158,341.16,156.23,345.2Z" style="fill: rgb(255, 168, 167); transform-origin: 148.305px 357.444px;" id="elt1m3d1l8vv" class="animable"></path><path d="M167.06,385.31c.25.09-.41,3-2.21,3.67-2.09.77-7.54,1.27-13.36-1.81s-7.05-4.94-8.73-7.9-3.12-5.95-5.65-7.59c-2.35-1.53-5.88-4-6.4-5.13s.91-4.58.91-4.58Z" style="fill: rgb(38, 50, 56); transform-origin: 148.854px 375.766px;" id="elc38ulqegz7" class="animable"></path><path d="M139.69,347.56a1.16,1.16,0,0,0-1.35.45c-.55.9-1.81,3.65-2.82,5.1a42.7,42.7,0,0,0-4.24,10.11c-.34,1.94,4.54,5,6.84,7.07a27.06,27.06,0,0,1,5.7,7.53,20.1,20.1,0,0,0,9.74,8.36c4.72,1.73,10.59,2.19,12.63.47,2.51-2.14,3.71-4.65-2.06-10.51-1.1-1.11-4.27-5-5.48-6.61a32.13,32.13,0,0,1-3.48-5.53,19.72,19.72,0,0,1-1.61-4.19,10.55,10.55,0,0,1-.07-2.45,24,24,0,0,1,.22-2.54,1.71,1.71,0,0,0-.19-1.39,1.6,1.6,0,0,0-.88-.41,25.69,25.69,0,0,0-5.08-.71,3,3,0,0,0-1.95.42,2.54,2.54,0,0,0-.8,1.18,10.47,10.47,0,0,1-.55,1.34.86.86,0,0,1-.35.38c-.32.15-.63-.19-.76-.45a18.52,18.52,0,0,1-1-3c-.18-.53-1.56-1.35-1.85-1.83a11.71,11.71,0,0,1-.91-1.22C139.08,348.59,139.5,348.13,139.69,347.56Z" style="fill: rgb(55, 71, 79); transform-origin: 149.768px 367.613px;" id="el8p2yyzhn2qu" class="animable"></path><path d="M143.82,377.82a35.86,35.86,0,0,0-2.31-3.7h0s6.33,5.73,10.5,4.71c2.69-.66,2.33-2.81,2.5-3.4s6.34-1,8.51-.51h0c.46.54.85,1,1.1,1.23,5.77,5.86,4.57,8.37,2.06,10.51-2,1.72-6.51,2-12.6-.29A20.72,20.72,0,0,1,143.82,377.82Z" style="fill: rgb(69, 90, 100); transform-origin: 154.887px 381.069px;" id="elc1iw563rwjt" class="animable"></path><path d="M154.56,373.55c3.69,3.36,1.54,3.48.26,3.2s-6.09-6.11-9.23-11.31c-3.27-5.42-5.86-10.82-7.08-12.82-.46-.75-.92-1.63-1.32-2.44.47-.91.89-1.75,1.15-2.17a1.65,1.65,0,0,1,1.52-.63l-.39,1.64a3.71,3.71,0,0,0,.91,1.27,6.08,6.08,0,0,1,1.73,1.93,18.52,18.52,0,0,0,1,3C145.14,361.42,150.87,370.19,154.56,373.55Z" style="fill: rgb(38, 50, 56); transform-origin: 146.903px 362.107px;" id="ely62jcl7zn3n" class="animable"></path><path d="M154.75,376a.52.52,0,0,1-.24-.2.46.46,0,0,1,.17-.63,11,11,0,0,1,9.13-.16.47.47,0,0,1,.2.62.45.45,0,0,1-.62.2,10.22,10.22,0,0,0-8.25.13A.49.49,0,0,1,154.75,376Z" style="fill: rgb(240, 240, 240); transform-origin: 159.253px 375.06px;" id="el7vxecl7b6ox" class="animable"></path><path d="M151.75,372.44a.51.51,0,0,1-.24-.2.47.47,0,0,1,.15-.63,11.08,11.08,0,0,1,9.13-.37.46.46,0,1,1-.4.83,10.22,10.22,0,0,0-8.25.32A.45.45,0,0,1,151.75,372.44Z" style="fill: rgb(240, 240, 240); transform-origin: 156.249px 371.447px;" id="elslqhe7yezwi" class="animable"></path><path d="M149.16,368.69a.47.47,0,0,1-.24-.2.46.46,0,0,1,.17-.63,11,11,0,0,1,9.13-.15.46.46,0,0,1-.41.82,10.2,10.2,0,0,0-8.26.13A.45.45,0,0,1,149.16,368.69Z" style="fill: rgb(240, 240, 240); transform-origin: 153.649px 367.756px;" id="el2015hlw9idq" class="animable"></path><path d="M146.89,365.33a.47.47,0,0,1-.25-.19.46.46,0,0,1,.14-.63,11.06,11.06,0,0,1,9.12-.55.46.46,0,0,1-.38.84,10.21,10.21,0,0,0-8.24.48A.45.45,0,0,1,146.89,365.33Z" style="fill: rgb(240, 240, 240); transform-origin: 151.37px 364.291px;" id="elyy3lukg0je" class="animable"></path><path d="M144.53,361.49a.43.43,0,0,1-.24-.18.46.46,0,0,1,.13-.64c2.42-1.59,6.75-1.73,9.87-.3a.46.46,0,1,1-.38.83c-2.81-1.28-6.84-1.17-9,.24A.45.45,0,0,1,144.53,361.49Z" style="fill: rgb(240, 240, 240); transform-origin: 149.412px 360.446px;" id="el18rnu620kts" class="animable"></path><path d="M80.43,323.28c-4.25.69-9.78,1.49-13.78,5.58-6.5,6.66-12,15-13.14,17.77s-3.4,2-6.32-2.14a14.58,14.58,0,0,1-.73-15.43c2.92-5,6-9.08,6.87-12.16s4.25-4.62,8.46-5c1.46-.14,6.29-.63,8.23-1,6.68-2.94,16.27-7.35,16.27-7.35l6,17.77S84.68,322.6,80.43,323.28Z" style="fill: rgb(255, 168, 167); transform-origin: 68.4437px 325.908px;" id="elnkgkvy6jru" class="animable"></path><path d="M53,353.3c.06.26-2.69,1.25-4.19.11-1.73-1.32-5-5.55-5.52-12s.36-8.41,1.92-11.35,3.27-5.7,3.29-8.66c0-2.74.23-7,.86-8s4.26-1.66,4.26-1.66Z" style="fill: rgb(38, 50, 56); transform-origin: 48.3801px 332.843px;" id="elir1bcpfsq18" class="animable"></path><path d="M69.79,310.88a1.14,1.14,0,0,0-1.08-.87c-1,0-4,.42-5.69.35a42.11,42.11,0,0,0-10.57,1.82c-1.78.74-1.77,6.4-2.24,9.35A26.41,26.41,0,0,1,47,330.2a19.63,19.63,0,0,0-1.77,12.43c1.05,4.8,3.76,9.89,6.25,10.66,3.09.95,5.79.61,7.58-7.23.34-1.48,1.9-6.16,2.58-8a31.35,31.35,0,0,1,2.72-5.77A19.3,19.3,0,0,1,67,328.76a10,10,0,0,1,2-1.34c.72-.42,1.46-.81,2.21-1.16.43-.19,1.27-.32,1.4-.78.09-.3-.41-.51-.68-.7a5.8,5.8,0,0,1-2.46-2.94c-1-2-.6-2.3-1.12-3.17-.24-.41-.61-.32-1.07-.23a11.31,11.31,0,0,1-1.39.26.86.86,0,0,1-.5-.09c-.3-.19-.18-.62,0-.87a18.3,18.3,0,0,1,1.9-2.41c.34-.43.29-2,.53-2.49a12.11,12.11,0,0,1,.53-1.39C68.62,310.92,69.22,311,69.79,310.88Z" style="fill: rgb(55, 71, 79); transform-origin: 58.7595px 331.838px;" id="elhi6mmr3taof" class="animable"></path><path d="M47,330.2a37.68,37.68,0,0,0,1.84-3.85h0s-1.4,8.24,1.64,11.14c1.95,1.87,3.55.44,4.12.27s4.19,4.68,4.89,6.75h0c-.2.66-.36,1.21-.44,1.55-1.79,7.84-4.49,8.18-7.58,7.23-2.49-.77-5.06-4.33-6.38-10.55A20.21,20.21,0,0,1,47,330.2Z" style="fill: rgb(69, 90, 100); transform-origin: 52.1476px 340.008px;" id="elf0z3o9rkgrb" class="animable"></path><path d="M56.17,336.81c-.83,4.82-2.06,3.1-2.5,1.89s1.83-8.23,4.47-13.55c2.75-5.54,5.85-10.53,6.85-12.59.38-.76.86-1.61,1.32-2.36,1-.09,1.91-.19,2.4-.19a1.61,1.61,0,0,1,1.31.92l-1.55.54a3.62,3.62,0,0,0-.58,1.42,5.89,5.89,0,0,1-.67,2.44,18.3,18.3,0,0,0-1.9,2.41C61.22,322.66,57,332,56.17,336.81Z" style="fill: rgb(38, 50, 56); transform-origin: 61.8175px 325.013px;" id="els0v41s530f" class="animable"></path><path d="M54.25,338.25a.45.45,0,0,1,0-.3.45.45,0,0,1,.61-.19,10.8,10.8,0,0,1,4.93,7.44.47.47,0,0,1-.4.5.45.45,0,0,1-.5-.4,10,10,0,0,0-4.45-6.74A.48.48,0,0,1,54.25,338.25Z" style="fill: rgb(240, 240, 240); transform-origin: 57.0078px 341.705px;" id="elc67fj9bbba6" class="animable"></path><path d="M55.61,333.91a.45.45,0,0,1,0-.3.45.45,0,0,1,.6-.21,10.83,10.83,0,0,1,5.1,7.33.45.45,0,0,1-.39.5.43.43,0,0,1-.5-.39,10,10,0,0,0-4.61-6.63A.45.45,0,0,1,55.61,333.91Z" style="fill: rgb(240, 240, 240); transform-origin: 58.4487px 337.296px;" id="el4ctljk5ybt3" class="animable"></path><path d="M57.34,329.8a.45.45,0,0,1,0-.3.44.44,0,0,1,.6-.19,10.75,10.75,0,0,1,4.93,7.44.45.45,0,1,1-.89.1,10,10,0,0,0-4.45-6.74A.48.48,0,0,1,57.34,329.8Z" style="fill: rgb(240, 240, 240); transform-origin: 60.0971px 333.276px;" id="el59fidqon2ie" class="animable"></path><path d="M58.91,326.16a.52.52,0,0,1,0-.3.46.46,0,0,1,.6-.22,10.79,10.79,0,0,1,5.24,7.23.44.44,0,0,1-.38.51.45.45,0,0,1-.51-.38,10,10,0,0,0-4.73-6.54A.47.47,0,0,1,58.91,326.16Z" style="fill: rgb(240, 240, 240); transform-origin: 61.822px 329.493px;" id="elqitlso8f1oa" class="animable"></path><path d="M60.84,322.19a.43.43,0,0,1,0-.29.43.43,0,0,1,.59-.22c2.59,1.16,5,4.66,5.44,8a.45.45,0,0,1-.38.51.46.46,0,0,1-.51-.39c-.42-3-2.63-6.25-4.92-7.29A.42.42,0,0,1,60.84,322.19Z" style="fill: rgb(240, 240, 240); transform-origin: 63.8448px 325.914px;" id="el65pkmayehs" class="animable"></path><path d="M171.85,287.4c-4.09-9.26-10.68-19.71-19.44-36.27v-6.52l-56-5.18c-1.12,8.39-2.39,16.75.93,29,5.64,20.91,7.45,26.07,7.45,26.07-7.16,1.33-8.68,3.09-25.4,12-1,4.92,1.47,12.76,4.73,16.38,15.92-2,23.73-3.58,32.73-5.22,11.48-2.09,15.5-6,16.4-12,.82-5.44,0-14.83-1.06-22.65l16.19,20.48c-4.4,7-5.63,14.57-8,35,3.59,3.53,12.17,5.69,17,4.89,6.86-14.51,9.74-21.94,13.2-30.41C174.94,302.24,176,296.67,171.85,287.4Z" style="fill: rgb(69, 90, 100); transform-origin: 126.815px 291.488px;" id="el0x9rchychnqm" class="animable"></path><g id="elgndadwgaumj"><path d="M88.29,301.75a1,1,0,0,0,0,.1c.27-.12,9.37-3.43,12.45-3.68,3.94-.32,5.62,1.23,5.62,1.23a12.9,12.9,0,0,1-1.58-4.87C99.1,295.58,97.52,296.8,88.29,301.75Z" style="opacity: 0.2; transform-origin: 97.3244px 298.19px;" class="animable"></path></g><g id="elv1qecurls5l"><path d="M132.17,283.13l-.84-10.51A54.26,54.26,0,0,0,144.4,258s-3.83,8.92-9.85,15.14l.08,7.49,13.7,22.91Z" style="opacity: 0.2; transform-origin: 139.83px 280.77px;" class="animable"></path></g></g><g id="freepik--top--inject-114" class="animable" style="transform-origin: 119.661px 182.073px;"><g id="freepik--arm--inject-114" class="animable" style="transform-origin: 152.748px 162.188px;"><path d="M173.18,161.07c-2.22-10-3.26-17.26-3.69-20.84a18.72,18.72,0,0,1,.06-4.67,21.89,21.89,0,0,0-.09-6.08c-.17-1.2-.32-2.41-.47-3.61-.56-3.24-1.22-11-5.56-11a3.1,3.1,0,0,0-2.55-2.6,5.61,5.61,0,0,1-1.74-.28c-1.12-1-2.54-1.93-4.1-1.25-.31-.9-1-2.05-2.08-1.85-1.59.63-1.39,3-1.34,4.45.55,3.67,3,8.85,3.07,12.13-.2,2-2.29-2.79-2.59-3.17a3.32,3.32,0,0,0-2.77-1.43c-2.11,0-.74,2.41-.66,3.6a19.06,19.06,0,0,0,2.85,8.24c.62.82,1.18,1.51,1.68,2.11a10,10,0,0,1,2.29,6.21l.44,26.8a90.11,90.11,0,0,1-6.56,9c-3.52,4.49-7.89,7.19-12.73,9.62-6.61,13.57,12.23,32.69,14.42,25,1.95-6.85,6.55-12.44,10.37-18.73,6.13-10.08,7.32-12.12,9.48-15.59C173.64,172.8,175.47,171.36,173.18,161.07Z" style="fill: rgb(255, 168, 167); transform-origin: 154.73px 161.041px;" id="elqb9sguq0qiq" class="animable"></path><path d="M135.54,186.19a25.37,25.37,0,0,0,7.67-4,35.53,35.53,0,0,0,6.45-6.24c1.25-1.79,3.81-4.82,3.81-4.82a15.78,15.78,0,0,1,8,5.37,21.76,21.76,0,0,1,4.45,9.69s-4.34,7.16-7.38,11.88-6.77,10.56-7.15,15.21c-4.36,4.35-8.77,1.38-11.33-.89C132.53,205.72,127.12,189.6,135.54,186.19Z" style="fill: rgb(69, 90, 100); transform-origin: 148.599px 193.319px;" id="el6ps4h3coowa" class="animable"></path><path d="M162,132.43a9.74,9.74,0,0,0-.86-2.5,6.88,6.88,0,0,0-3.91-3.62c-.2,0-.17.19-.08.28.57.64,1.24,1.16,1.79,1.82a10.07,10.07,0,0,1,1.39,2.1,8.51,8.51,0,0,1,.9,3.43,2.62,2.62,0,0,0,.16,1.15c.09.16.4.29.52.08A4.49,4.49,0,0,0,162,132.43Z" style="fill: rgb(242, 143, 143); transform-origin: 159.626px 130.795px;" id="elq5lteo56bkr" class="animable"></path></g><path d="M100.36,187.28c-4.6,1.36-7.74,17.75-6.9,24.24a161.46,161.46,0,0,1,1.64,21.72,116.44,116.44,0,0,1-1,15.29c7.29,8.64,42.2,11.61,59.4.13,0,0-1.53-30.9-2.42-39.34-1.55-14.68-9.78-22.09-15.77-23.18s-11.65-2.66-17.1-1.87C115.05,184.73,107.89,185.06,100.36,187.28Z" style="fill: rgb(0, 167, 170); transform-origin: 123.412px 220.12px;" id="elsorz3yonf4n" class="animable"></path><g id="el6on6mke4bb9"><path d="M100.36,187.28c-4.6,1.36-7.74,17.75-6.9,24.24a161.46,161.46,0,0,1,1.64,21.72,116.44,116.44,0,0,1-1,15.29c7.29,8.64,42.2,11.61,59.4.13,0,0-1.53-30.9-2.42-39.34-1.55-14.68-9.78-22.09-15.77-23.18s-11.65-2.66-17.1-1.87C115.05,184.73,107.89,185.06,100.36,187.28Z" style="fill: rgb(255, 255, 255); opacity: 0.25; transform-origin: 123.412px 220.12px;" class="animable"></path></g><path d="M110.7,179.85c-1.86-4.36-5.58-8.48-9.52-14.84-6-9.64-6.11-19.94,1.86-23.59.38-5.75,5-9.95,10.08-10.9,3.61-.68,9.19-.19,12.78.54a34.42,34.42,0,0,0,12.06.57c1.61-.22,3.34-.54,4.81.17a4.57,4.57,0,0,1,2.38,3.92,7.61,7.61,0,0,1-1.46,4.51,3.93,3.93,0,0,1,.22,7.61,4.71,4.71,0,0,1-.88,5.29,8.5,8.5,0,0,1-5.09,2.38c.05,0-.95,3.83-1.1,4.18a15.89,15.89,0,0,1-2.33,3.85,15.46,15.46,0,0,1-3.33,3,22.59,22.59,0,0,1-4.67,1.88,14.48,14.48,0,0,0-2.75,1.14,9.85,9.85,0,0,0-1.49,1.6l-8.54,9.14C113.08,181,111.47,179.8,110.7,179.85Z" style="fill: rgb(38, 50, 56); transform-origin: 121.802px 155.358px;" id="eltn11cewixe" class="animable"></path><path d="M109.63,164.1a2.29,2.29,0,0,1-.23.21c-1.26.91-1.36-1.36-2.72-2.78a3.33,3.33,0,0,0-2.84-.95,4.31,4.31,0,0,0-3.91,2.72c-1.15,2.81.56,6.95,4.26,8a5.13,5.13,0,0,0,5.46-1.43L111,187c2.27,3.77,8.58,7.9,16.09,6,5.76-1.45,5.64-4.31,2.75-8.1l-.22-3.53a21.58,21.58,0,0,0,6.61-1.34,14,14,0,0,0,8.33-10.61c.41-3.29-.75-6.12-.92-9.42-.1-2-.13-5.06-.26-6.33-.15-1.57-1-8-3.67-9.6-2.38,4.45-14.36,6.28-23.34,3.19a13.66,13.66,0,0,1-1.25,6.83c-1.11,2.38-3.05,3.68-5.2,5.23a7.9,7.9,0,0,1,.13,3.68A2.58,2.58,0,0,1,109.63,164.1Z" style="fill: rgb(255, 168, 167); transform-origin: 122.111px 168.774px;" id="elc1i3imuxieg" class="animable"></path><path d="M107.49,162.66l10.26-1.25a5.66,5.66,0,0,0,11.31-.43h0a2.76,2.76,0,0,1,2.21-2.38,2.19,2.19,0,0,1,2.28,1,5.66,5.66,0,1,0-.24-1.63c0,.09,0,.18,0,.27a3.67,3.67,0,0,0-2.2-.42,4.23,4.23,0,0,0-2.31,1.47,5.66,5.66,0,0,0-11.06,1.32L107,161.94ZM134.08,158a4.89,4.89,0,1,1,4.89,4.89A4.9,4.9,0,0,1,134.08,158Zm-15.58,3a4.9,4.9,0,1,1,4.89,4.89A4.91,4.91,0,0,1,118.5,161Z" style="fill: rgb(69, 90, 100); transform-origin: 125.815px 159.531px;" id="elmz550cjq83q" class="animable"></path><path d="M112.59,173.54a14,14,0,0,0,5.8,5.24,35.68,35.68,0,0,0,11.26,2.6l.13,2.05c-3-.13-10.71-1.08-14.55-4.52A7.81,7.81,0,0,1,112.59,173.54Z" style="fill: rgb(242, 143, 143); transform-origin: 121.185px 178.485px;" id="elp763oucjfiq" class="animable"></path><path d="M122.72,152.23l-4.24,2.63a2.62,2.62,0,0,1,.84-3.52A2.43,2.43,0,0,1,122.72,152.23Z" style="fill: rgb(38, 50, 56); transform-origin: 120.422px 152.919px;" id="elz1e0shgr74g" class="animable"></path><path d="M140.52,151.19l-5-.57a2.61,2.61,0,0,1,2.84-2.24A2.44,2.44,0,0,1,140.52,151.19Z" style="fill: rgb(38, 50, 56); transform-origin: 138.035px 149.779px;" id="el0ygq1d0inxs" class="animable"></path><path d="M125.4,169.51c1.1-1.17,2.18.22,4.71.55s3.93-1,4.47.54c.44,1.3-1,4.15-5.22,3.87C125.78,174.24,124.41,170.56,125.4,169.51Z" style="fill: rgb(135, 76, 76); transform-origin: 129.871px 171.769px;" id="elbx8e5m6tqaq" class="animable"></path><path d="M130.11,170.06a33.78,33.78,0,0,1-3.5-1l0,1.13a5.48,5.48,0,0,0,2.77,1.05,7.51,7.51,0,0,0,4-.36l.28-1.06A18.05,18.05,0,0,1,130.11,170.06Z" style="fill: rgb(250, 250, 250); transform-origin: 130.135px 170.211px;" id="el5a5mg7cq4w3" class="animable"></path><path d="M129.36,174.47a6.91,6.91,0,0,0,2.26-.19,4.88,4.88,0,0,0-5-2.69,4.75,4.75,0,0,0-1.19.32A4.62,4.62,0,0,0,129.36,174.47Z" style="fill: rgb(242, 143, 143); transform-origin: 128.525px 173.022px;" id="elpoag0mda0y" class="animable"></path><path d="M122.3,160.8a2.05,2.05,0,1,0,1.64-2.39A2,2,0,0,0,122.3,160.8Z" style="fill: rgb(38, 50, 56); transform-origin: 124.311px 160.425px;" id="elbj9hyc5zt0o" class="animable"></path><path d="M136.68,158.12a2,2,0,1,0,1.63-2.39A2,2,0,0,0,136.68,158.12Z" style="fill: rgb(38, 50, 56); transform-origin: 138.636px 157.703px;" id="el3m0g8o4spdl" class="animable"></path><path d="M130.93,158.7l2.17,8.06L138,164.4c-1.86-2.46-4-5.18-6.19-5.82A1.76,1.76,0,0,0,130.93,158.7Z" style="fill: rgb(242, 143, 143); transform-origin: 134.465px 162.664px;" id="elw7u9b3k4zi8" class="animable"></path><g id="freepik--arm--inject-114" class="animable" style="transform-origin: 85.9573px 163.116px;"><path d="M103.21,186.43c-2.41.26-6.28-2.6-11-9.05A142.43,142.43,0,0,1,84,164.82L80.77,138.3h0c.08-2.34,3.93-6.42,4.45-9.88s.76-5.26,1.28-7.85c.59-1.5-1.36-2.14-2.4-1.3-2.28.67-2.82,6.19-4.2,5.61-.34-.32-.06-1.93,0-2.66.38-3.94,1.45-9.51,1-11.79s-2.06-3.24-3.4-1.76c-.63.75-.49,1.13-.76,1.65-1.16-.37-1.89-.24-3.15.9a4,4,0,0,0-.61,1,3.15,3.15,0,0,0-2.58.84,5,5,0,0,0-1.38,2.12c-3.55.79-3.7,7.1-3.91,10.11,0,1.86,0,3.73,0,5.6a22.73,22.73,0,0,0,.71,6.23,17.1,17.1,0,0,1,.52,5.19c-.25,5.28-.74,16.87-.74,26.33,0,5.25.08,6.72,2.66,11,3.42,5.74,9,11.51,15.57,21.12,4.39,6.46,7.67,10.83,10.4,16.54,3.66.41,6.61-2.26,9.51-7.8C107.75,201.94,106.69,190.81,103.21,186.43Z" style="fill: rgb(255, 168, 167); transform-origin: 85.709px 162.651px;" id="elipw4jjc38d" class="animable"></path><path d="M104.09,186.32c-.88.11-2.58-.42-5.23-2.26S88.68,172.3,88.68,172.3a15.55,15.55,0,0,1-4.74,12.18C78.36,189.9,75,188.9,75,188.9s5.6,7.94,8.69,12.61,9.73,13.71,10.55,16.73c3.17.38,9-2.71,11.54-12.51S105.55,187.78,104.09,186.32Z" style="fill: rgb(69, 90, 100); transform-origin: 90.9058px 195.285px;" id="elh78ks17t0ia" class="animable"></path><path d="M78.45,126.43a3.6,3.6,0,0,0-2.51.9,7.26,7.26,0,0,0-1.93,2,6,6,0,0,0-.51,5.81.12.12,0,0,0,.23,0c0-.85,0-1.69.09-2.54a7.44,7.44,0,0,1,.93-2.78,7.12,7.12,0,0,1,3.77-3.08C78.67,126.69,78.57,126.45,78.45,126.43Z" style="fill: rgb(242, 143, 143); transform-origin: 75.787px 130.827px;" id="el4wgxiw4asq4" class="animable"></path></g></g></g></g><g id="freepik--Text--inject-114" class="animable" style="transform-origin: 250.001px 417.751px;"><g id="freepik--text--inject-114" class="animable" style="transform-origin: 250.001px 417.751px;"><path d="M41.86,406.79a5.54,5.54,0,0,1,1.15-2,5.94,5.94,0,0,1,1.84-1.37,6.16,6.16,0,0,1,2.24-.6,6.25,6.25,0,0,1,2.41.28,6.62,6.62,0,0,1,2.13,1.14,6.45,6.45,0,0,1,1.5,1.79,5.84,5.84,0,0,1,.71,2.17,5.42,5.42,0,0,1-.21,2.32,5.64,5.64,0,0,1-1.12,2,5.92,5.92,0,0,1-1.82,1.39,6.14,6.14,0,0,1-2.27.62,6.22,6.22,0,0,1-2.44-.29,6.37,6.37,0,0,1-2.17-1.16,6.08,6.08,0,0,1-1.51-1.81,5.72,5.72,0,0,1-.69-2.19A5.4,5.4,0,0,1,41.86,406.79Z" style="fill: rgb(0, 167, 170); transform-origin: 47.7314px 408.675px;" id="elz89ddmuagdo" class="animable"></path><path d="M68.82,408.66c-.14.37-.3.88-.51,1.54s-.4,1.35-.6,2.06-.39,1.4-.57,2.09-.3,1.22-.37,1.6a8.14,8.14,0,0,0-.13,2,4.36,4.36,0,0,0,.56,1.89,5.25,5.25,0,0,0,1.44,1.6,7.61,7.61,0,0,0,2.51,1.13,8.46,8.46,0,0,0,2.68.35,5.87,5.87,0,0,0,1.89-.41,3.68,3.68,0,0,0,1.28-.85,6.41,6.41,0,0,0,.83-1,2.73,2.73,0,0,1,.76-.85,1.52,1.52,0,0,1,1.13,0c2.41.62,3.61.93,6,1.53a1,1,0,0,1,.64.47.92.92,0,0,1,.13.75,8.88,8.88,0,0,1-2.2,3.91,11.18,11.18,0,0,1-3.93,2.63,16.17,16.17,0,0,1-5.18,1.1,19,19,0,0,1-5.94-.68,17.85,17.85,0,0,1-5.72-2.6,13.83,13.83,0,0,1-3.75-3.81,11.41,11.41,0,0,1-1.74-4.57,12.73,12.73,0,0,1,.21-4.84c.29-1.2.63-2.48,1-3.83s.82-2.65,1.24-3.87a12.5,12.5,0,0,1,2.41-4.2,12.19,12.19,0,0,1,3.84-2.94,13.7,13.7,0,0,1,5-1.3,17.49,17.49,0,0,1,6,.65A17.94,17.94,0,0,1,83,400.55a15.81,15.81,0,0,1,3.8,3.43,11.29,11.29,0,0,1,2.1,4.16,9,9,0,0,1,.08,4.48.92.92,0,0,1-.46.6,1,1,0,0,1-.77.11c-2.38-.6-3.57-.9-6-1.52a1.54,1.54,0,0,1-1-.55,3,3,0,0,1-.24-1.12,6.78,6.78,0,0,0-.22-1.27,3.92,3.92,0,0,0-.67-1.36,5.49,5.49,0,0,0-1.4-1.28,7.74,7.74,0,0,0-2.42-1,7.09,7.09,0,0,0-2.67-.29,5,5,0,0,0-2,.63,4.58,4.58,0,0,0-1.44,1.33A8.25,8.25,0,0,0,68.82,408.66Z" style="fill: rgb(0, 167, 170); transform-origin: 73.5577px 413.871px;" id="eldnoout8hj29" class="animable"></path><path d="M121.5,409a1.22,1.22,0,0,1,.79.52,1.15,1.15,0,0,1,.19.91q-2.82,14.28-5.65,28.56a1.14,1.14,0,0,1-.55.76,1.25,1.25,0,0,1-1,.18c-2.47-.49-3.71-.75-6.17-1.26a1.33,1.33,0,0,1-.82-.54,1.11,1.11,0,0,1-.2-.92l2.28-10.8c-4.1-.87-6.15-1.32-10.25-2.25l-2.45,10.76a1.12,1.12,0,0,1-.57.75,1.27,1.27,0,0,1-1,.15L90,434.4a1.34,1.34,0,0,1-.81-.55,1.08,1.08,0,0,1-.17-.94q3.4-14.15,6.83-28.3a1.17,1.17,0,0,1,.56-.75,1.21,1.21,0,0,1,.93-.14c2.35.56,3.52.83,5.86,1.37a1.2,1.2,0,0,1,.77.55,1.12,1.12,0,0,1,.17.92c-1,4.23-1.44,6.35-2.41,10.58,4,.93,6.08,1.37,10.14,2.23l2.25-10.62a1.18,1.18,0,0,1,.54-.77,1.2,1.2,0,0,1,.92-.17Z" style="fill: rgb(0, 167, 170); transform-origin: 105.742px 421.824px;" id="elri39wv385ei" class="animable"></path><path d="M124.48,441.72a1.31,1.31,0,0,1-.84-.53,1.15,1.15,0,0,1-.22-.91q2.7-14.31,5.38-28.61a1.16,1.16,0,0,1,.52-.78,1.2,1.2,0,0,1,.92-.19c2.36.44,3.54.65,5.91,1.07a1.2,1.2,0,0,1,.79.51,1.14,1.14,0,0,1,.22.9q-2.5,14.34-5,28.68a1.15,1.15,0,0,1-.53.78,1.3,1.3,0,0,1-1,.2C128.19,442.4,127,442.18,124.48,441.72Z" style="fill: rgb(0, 167, 170); transform-origin: 130.29px 426.772px;" id="el605qh0k4k0m" class="animable"></path><path d="M162.76,440.45a1.24,1.24,0,0,1,.85.47,1.15,1.15,0,0,1,.27.9c-.24,1.89-.36,2.84-.61,4.74a1.13,1.13,0,0,1-.48.8,1.34,1.34,0,0,1-.95.24c-8.81-1.14-13.21-1.78-22-3.21a1.28,1.28,0,0,1-.84-.5,1.17,1.17,0,0,1-.24-.91q2.37-14.36,4.72-28.72a1.25,1.25,0,0,1,1.42-1c2.37.39,3.56.58,5.93.94a1.16,1.16,0,0,1,.8.49,1.13,1.13,0,0,1,.24.9l-3.45,22.86C154.15,439.3,157,439.7,162.76,440.45Z" style="fill: rgb(0, 167, 170); transform-origin: 151.318px 430.428px;" id="els19ii8ioll" class="animable"></path><path d="M184.29,418.43a17.58,17.58,0,0,1,5.64,1.47,14.13,14.13,0,0,1,4.28,3,12.21,12.21,0,0,1,2.65,4.22,13.5,13.5,0,0,1,.83,5.15q0,.94-.09,1.74t-.12,1.5c0,.48-.08,1-.12,1.49s-.1,1.06-.17,1.65a13.24,13.24,0,0,1-1.63,5,12,12,0,0,1-3.33,3.71,13.69,13.69,0,0,1-4.82,2.17,17.85,17.85,0,0,1-6,.35c-5.15-.52-7.72-.8-12.86-1.41a1.26,1.26,0,0,1-.86-.47,1.13,1.13,0,0,1-.28-.9l3.51-28.9a1.16,1.16,0,0,1,.46-.8,1.22,1.22,0,0,1,.91-.26C177.05,417.68,179.46,417.94,184.29,418.43Zm4.83,12.91c.14-3.44-1.8-5.36-5.79-5.76l-4.69-.49c-.73,6.81-1.1,10.22-1.84,17l5,.52c4,.4,6.17-1.14,6.65-4.56q.13-.94.21-1.77t.15-1.62c0-.52.09-1.05.14-1.59S189.09,432,189.12,431.34Z" style="fill: rgb(0, 167, 170); transform-origin: 182.549px 433.56px;" id="el1rpsifx7noi" class="animable"></path><path d="M217.5,420.93a22.08,22.08,0,0,1,5.36.87,11.83,11.83,0,0,1,4,2.05,8.36,8.36,0,0,1,2.47,3.3,10.94,10.94,0,0,1,.76,4.6,10.13,10.13,0,0,1-1.62,5.57,9.05,9.05,0,0,1-4.24,3.25c2.16,4.38,3.27,6.56,5.51,10.92a1,1,0,0,1,.12.5.88.88,0,0,1-.33.69,1,1,0,0,1-.75.27c-2.6-.08-3.9-.13-6.5-.23a1.92,1.92,0,0,1-1.35-.46,4.65,4.65,0,0,1-.61-.84c-1.95-3.95-2.91-5.92-4.8-9.88l-4.33-.24c-.22,3.85-.33,5.78-.56,9.63a1.12,1.12,0,0,1-.43.83,1.27,1.27,0,0,1-.93.31l-6.26-.4a1.33,1.33,0,0,1-.88-.42,1.13,1.13,0,0,1-.32-.89l2-29a1.17,1.17,0,0,1,.43-.82,1.14,1.14,0,0,1,.89-.3C210.08,420.53,212.55,420.68,217.5,420.93Zm-5.94,13.35c2.11.12,3.16.18,5.26.28a6.43,6.43,0,0,0,3.27-.56,3.32,3.32,0,0,0,.23-5.23,6.63,6.63,0,0,0-3.17-.87c-2.08-.1-3.12-.16-5.21-.28C211.79,430.29,211.71,431.62,211.56,434.28Z" style="fill: rgb(0, 167, 170); transform-origin: 215.955px 436.593px;" id="elh25roasv1f5" class="animable"></path><path d="M258.81,446a1.26,1.26,0,0,1,.9.35,1.12,1.12,0,0,1,.39.85c0,1.91,0,2.87.07,4.78a1.1,1.1,0,0,1-.37.86,1.26,1.26,0,0,1-.9.37c-9.07.12-13.61.1-22.68-.08a1.28,1.28,0,0,1-.91-.38,1.11,1.11,0,0,1-.36-.86q.31-14.56.64-29.11a1.18,1.18,0,0,1,.38-.85,1.21,1.21,0,0,1,.88-.34c8.51.17,12.77.19,21.28.08a1.21,1.21,0,0,1,.87.35,1.18,1.18,0,0,1,.38.85c0,1.91,0,2.87.07,4.78a1.18,1.18,0,0,1-.36.86,1.21,1.21,0,0,1-.87.37c-5.69.07-8.53.08-14.22,0l-.05,4.86c5.32.05,8,.05,13.3,0a1.24,1.24,0,0,1,.89.35,1.19,1.19,0,0,1,.39.85c0,1.91,0,2.87.06,4.78a1.15,1.15,0,0,1-.37.86,1.24,1.24,0,0,1-.89.37c-5.37.06-8.06.06-13.44,0l0,5.05C249.83,446.09,252.82,446.09,258.81,446Z" style="fill: rgb(0, 167, 170); transform-origin: 247.56px 437.438px;" id="el3it8g6y2j2d" class="animable"></path><path d="M287.46,452.26a2.05,2.05,0,0,1-1.34-.34,3.49,3.49,0,0,1-.68-.59c-4.69-5.94-7-8.92-11.48-14.93.22,6.09.33,9.13.54,15.22a1.1,1.1,0,0,1-.35.87,1.26,1.26,0,0,1-.89.39c-2.51.09-3.76.13-6.27.19a1.3,1.3,0,0,1-.92-.34,1.14,1.14,0,0,1-.4-.85q-.33-14.55-.67-29.1a1.21,1.21,0,0,1,.35-.87,1.22,1.22,0,0,1,.86-.38l4.75-.13a1.88,1.88,0,0,1,1.27.36,3,3,0,0,1,.63.61c4.41,6,6.66,9,11.25,14.95-.31-6.09-.46-9.13-.77-15.22a1.14,1.14,0,0,1,.32-.87,1.21,1.21,0,0,1,.85-.41c2.39-.12,3.58-.19,6-.34a1.18,1.18,0,0,1,.89.31,1.14,1.14,0,0,1,.42.83q.93,14.52,1.85,29.05a1.15,1.15,0,0,1-.33.88,1.23,1.23,0,0,1-.88.42Z" style="fill: rgb(0, 167, 170); transform-origin: 279.336px 436.774px;" id="el2lvrx56dev8" class="animable"></path><path d="M304.75,430a1.49,1.49,0,0,1-.37,1,1.23,1.23,0,0,1-.83.39l-3.62.28a1.27,1.27,0,0,1-.88-.25,1.61,1.61,0,0,1-.51-.91c-.68-3.71-1-5.57-1.68-9.28a1.61,1.61,0,0,1,.12-1.16,1.11,1.11,0,0,1,1-.55c2.26-.16,3.39-.25,5.64-.44a1.13,1.13,0,0,1,1.07.39,1.71,1.71,0,0,1,.3,1.13C304.89,424.37,304.85,426.25,304.75,430Z" style="fill: rgb(0, 167, 170); transform-origin: 300.9px 425.369px;" id="elati1ef7hp9i" class="animable"></path><path d="M321.71,417.35a16.86,16.86,0,0,1,5.44.21,16,16,0,0,1,4.46,1.62,10.88,10.88,0,0,1,3.15,2.5,5.9,5.9,0,0,1,1.45,2.86,1,1,0,0,1-.84,1.11c-2.41.31-3.62.46-6,.75a2.73,2.73,0,0,1-1.06,0,3.45,3.45,0,0,1-.87-.45l-.49-.39A4,4,0,0,0,326,425a6.09,6.09,0,0,0-1.45-.43,7.27,7.27,0,0,0-2.05,0,11.93,11.93,0,0,0-1.66.3,6.1,6.1,0,0,0-1.39.51,2.47,2.47,0,0,0-.94.8,1.62,1.62,0,0,0-.27,1.16,1.5,1.5,0,0,0,.55,1.07,4,4,0,0,0,1.57.68,19.54,19.54,0,0,0,2.83.44c1.17.11,2.62.24,4.35.37a25.75,25.75,0,0,1,4.6.71,10.94,10.94,0,0,1,3.42,1.5,7.32,7.32,0,0,1,2.26,2.44,9.7,9.7,0,0,1,1.11,3.55,7.71,7.71,0,0,1-.55,4.21,9.65,9.65,0,0,1-2.65,3.46,15.29,15.29,0,0,1-4.42,2.51,23,23,0,0,1-5.81,1.35,19.72,19.72,0,0,1-6-.18,16.15,16.15,0,0,1-4.8-1.68,10.77,10.77,0,0,1-3.29-2.7,6.36,6.36,0,0,1-1.44-3.27,1,1,0,0,1,.9-1.07c2.47-.23,3.7-.34,6.16-.59a2.46,2.46,0,0,1,1.85.45c.14.11.35.28.63.53a5.71,5.71,0,0,0,1.09.72,6.55,6.55,0,0,0,1.69.57,7.57,7.57,0,0,0,2.41,0,13.75,13.75,0,0,0,4.11-1c1.08-.47,1.56-1.15,1.46-2.05a1.38,1.38,0,0,0-.75-1.05,6.47,6.47,0,0,0-1.92-.61,30.09,30.09,0,0,0-3.2-.39c-1.29-.1-2.82-.24-4.57-.41-3.27-.33-5.73-1.2-7.35-2.6a8.56,8.56,0,0,1-2.77-6,8.1,8.1,0,0,1,.57-3.76,9.47,9.47,0,0,1,2.29-3.34,13,13,0,0,1,3.87-2.53A17.27,17.27,0,0,1,321.71,417.35Z" style="fill: rgb(0, 167, 170); transform-origin: 324.348px 433.5px;" id="ela6miiv3t5g" class="animable"></path><path d="M363.35,411.86a17.59,17.59,0,0,1,5.86-.12,14.14,14.14,0,0,1,4.93,1.71,12.08,12.08,0,0,1,3.71,3.34,13.58,13.58,0,0,1,2.2,4.74c.15.61.28,1.18.38,1.69s.2,1,.29,1.48.19,1,.29,1.46.19,1,.28,1.64a13.25,13.25,0,0,1-.22,5.24,11.81,11.81,0,0,1-2.22,4.47,13.76,13.76,0,0,1-4.06,3.4,18.17,18.17,0,0,1-5.74,2c-5.11.9-7.67,1.32-12.79,2.12a1.26,1.26,0,0,1-1-.21,1.13,1.13,0,0,1-.51-.79q-2.22-14.38-4.45-28.77a1.17,1.17,0,0,1,.23-.9,1.2,1.2,0,0,1,.81-.49C356.17,413.1,358.57,412.7,363.35,411.86ZM371.52,423c-.8-3.36-3.19-4.67-7.15-4l-4.65.8c1.13,6.75,1.7,10.13,2.83,16.89l5-.86c3.94-.69,5.66-2.78,5.19-6.2-.09-.63-.18-1.22-.28-1.76s-.2-1.08-.29-1.6-.2-1-.29-1.57S371.67,423.59,371.52,423Z" style="fill: rgb(0, 167, 170); transform-origin: 365.869px 428.304px;" id="elhzqbi4chfyu" class="animable"></path><path d="M398.56,404.68a1.87,1.87,0,0,1,1.48.16,2.86,2.86,0,0,1,.87.81q8.14,12.71,16.71,25.15a2.13,2.13,0,0,1,.35.61,1,1,0,0,1-.13.75,1.09,1.09,0,0,1-.66.47c-2.35.59-3.53.88-5.9,1.45a2,2,0,0,1-1.42-.05,1.58,1.58,0,0,1-.66-.61c-.88-1.33-1.31-2-2.18-3.33-4.95,1.18-7.43,1.74-12.4,2.82-.2,1.57-.31,2.36-.52,3.94a1.61,1.61,0,0,1-.34.83,2,2,0,0,1-1.26.66c-2.37.5-3.56.75-5.93,1.23a1,1,0,0,1-.79-.14,1,1,0,0,1-.45-.62,1.88,1.88,0,0,1,.06-.7q2.34-14.91,4.21-29.89a2.8,2.8,0,0,1,.44-1.11,1.89,1.89,0,0,1,1.26-.79C394.21,405.68,395.66,405.35,398.56,404.68Zm-3,20.87c3-.66,4.49-1,7.48-1.69-2.47-3.87-3.7-5.81-6.13-9.69C396.38,418.72,396.11,421,395.54,425.55Z" style="fill: rgb(0, 167, 170); transform-origin: 401.657px 422.097px;" id="eld1g9ht3upw" class="animable"></path><path d="M435.23,426.58a1.13,1.13,0,0,1-.14.92,1.32,1.32,0,0,1-.79.6c-2.44.68-3.66,1-6.1,1.67a1.33,1.33,0,0,1-1-.11,1.13,1.13,0,0,1-.59-.73l-2.47-9.28c-6.22-6.27-9.27-9.44-15.25-15.84a1.16,1.16,0,0,1-.32-.53.91.91,0,0,1,.12-.75,1,1,0,0,1,.62-.45c2.44-.62,3.67-.93,6.11-1.57a1.94,1.94,0,0,1,1.45.09,2.38,2.38,0,0,1,.7.51c3.38,3.7,5.09,5.53,8.54,9.19,1.13-4.91,1.67-7.36,2.72-12.27a2.7,2.7,0,0,1,.35-.8,2,2,0,0,1,1.21-.81c2.43-.7,3.64-1.05,6.07-1.77a1,1,0,0,1,.76.08.94.94,0,0,1,.49.58,1.15,1.15,0,0,1,0,.61c-1.91,8.57-2.92,12.85-5.08,21.41C433.67,421,434.19,422.88,435.23,426.58Z" style="fill: rgb(0, 167, 170); transform-origin: 423.144px 412.215px;" id="elflosp3kv8te" class="animable"></path><path d="M446.37,410.5a5.42,5.42,0,0,1-.21-2.32,5.84,5.84,0,0,1,.71-2.17,6.28,6.28,0,0,1,1.5-1.79,6.51,6.51,0,0,1,2.13-1.14,6.25,6.25,0,0,1,2.41-.28,6.16,6.16,0,0,1,2.24.6,5.94,5.94,0,0,1,1.84,1.37,5.54,5.54,0,0,1,1.15,2,5.39,5.39,0,0,1,.25,2.31,5.72,5.72,0,0,1-.69,2.19,6.24,6.24,0,0,1-1.51,1.81,6.47,6.47,0,0,1-2.17,1.16,6.22,6.22,0,0,1-2.44.29,6.14,6.14,0,0,1-2.27-.62,5.92,5.92,0,0,1-1.82-1.39A5.64,5.64,0,0,1,446.37,410.5Z" style="fill: rgb(0, 167, 170); transform-origin: 452.27px 408.665px;" id="elhj8er4wg5pq" class="animable"></path><path d="M218,383.18a.82.82,0,0,1,.57.28.79.79,0,0,1,.22.6c-.42,8-.62,12-1,20a.75.75,0,0,1-.28.57.85.85,0,0,1-.62.22l-1.32-.07a.85.85,0,0,1-.59-.28.78.78,0,0,1-.22-.6c.19-3.49.29-5.23.49-8.72-4.44-.25-6.66-.4-11.1-.72-.26,3.48-.39,5.22-.64,8.7a.81.81,0,0,1-.3.57.86.86,0,0,1-.63.2l-1.31-.1a.89.89,0,0,1-.59-.28.75.75,0,0,1-.21-.62c.63-8,.95-12,1.57-19.93a.81.81,0,0,1,.3-.57.77.77,0,0,1,.6-.2l1.27.09a.83.83,0,0,1,.57.3.77.77,0,0,1,.2.6c-.25,3.38-.37,5.07-.62,8.46,4.41.32,6.62.47,11.05.72.19-3.39.28-5.08.47-8.47a.86.86,0,0,1,.89-.79Z" style="fill: rgb(55, 71, 79); transform-origin: 209.628px 393.539px;" id="elgk4an8gi2qc" class="animable"></path><path d="M237,400.69c-4.41-.1-6.62-.17-11-.34-.72,1.62-1.09,2.43-1.82,4a1.51,1.51,0,0,1-.38.5,1.22,1.22,0,0,1-.91.22l-1.18-.05a.7.7,0,0,1-.49-.22.65.65,0,0,1-.18-.49,1,1,0,0,1,.15-.43c3.49-7.66,5.19-11.5,8.5-19.2a2.66,2.66,0,0,1,.49-.67,1.21,1.21,0,0,1,.94-.31l1.86.06a1.17,1.17,0,0,1,.92.37,2.42,2.42,0,0,1,.44.69c2.82,7.89,4.28,11.83,7.28,19.69a1.23,1.23,0,0,1,.12.43.63.63,0,0,1-.21.48.67.67,0,0,1-.5.19l-1.19,0a1.18,1.18,0,0,1-.89-.28,1.46,1.46,0,0,1-.34-.51C238,403.18,237.66,402.35,237,400.69Zm-9.81-3.08c3.51.13,5.26.18,8.77.27-1.64-4.47-2.45-6.7-4-11.17C230.09,391.08,229.14,393.25,227.22,397.61Z" style="fill: rgb(55, 71, 79); transform-origin: 231.389px 394.655px;" id="elj6eshs8jy1" class="animable"></path><path d="M253.89,384.06a10.75,10.75,0,0,1,2.87.37,6.88,6.88,0,0,1,2.38,1.17,5.76,5.76,0,0,1,1.66,2,7.36,7.36,0,0,1,.09,5.89,6.12,6.12,0,0,1-1.62,2.12,7,7,0,0,1-2.41,1.26,9.91,9.91,0,0,1-2.92.42h-5.82c0,3,0,4.55,0,7.58a.8.8,0,0,1-.26.59.85.85,0,0,1-.61.24H245.9a.82.82,0,0,1-.61-.25.79.79,0,0,1-.25-.59l.2-20a.77.77,0,0,1,.25-.58.79.79,0,0,1,.59-.25C249.2,384.07,250.76,384.07,253.89,384.06Zm-5.76,10.46h5.64a5.52,5.52,0,0,0,3.5-1,3.43,3.43,0,0,0,1.21-3,3.31,3.31,0,0,0-1.26-2.87,5.82,5.82,0,0,0-3.48-.87c-2.23,0-3.34,0-5.57,0C248.16,389.92,248.15,391.45,248.13,394.52Z" style="fill: rgb(55, 71, 79); transform-origin: 253.25px 394.865px;" id="elkgaj57kxvkm" class="animable"></path><path d="M273.71,383.67a10.07,10.07,0,0,1,2.88.28A6.76,6.76,0,0,1,279,385a5.86,5.86,0,0,1,1.73,2,6.65,6.65,0,0,1,.74,2.91,6.53,6.53,0,0,1-.47,3,6,6,0,0,1-1.56,2.17,6.83,6.83,0,0,1-2.36,1.33,10.14,10.14,0,0,1-2.91.52c-2.32.08-3.49.12-5.82.18l.2,7.58a.74.74,0,0,1-.24.59.8.8,0,0,1-.6.27l-1.31,0a.85.85,0,0,1-.89-.82c-.17-8-.26-12-.43-20a.84.84,0,0,1,.82-.85C269,383.82,270.59,383.78,273.71,383.67Zm-5.42,10.63c2.25-.06,3.38-.09,5.64-.17A5.58,5.58,0,0,0,277.4,393a3.47,3.47,0,0,0,1.11-3,3.34,3.34,0,0,0-1.35-2.83,5.84,5.84,0,0,0-3.51-.76c-2.22.08-3.34.11-5.56.17Z" style="fill: rgb(55, 71, 79); transform-origin: 273.285px 394.605px;" id="el3xbodop1mdu" class="animable"></path><path d="M294.41,403.47a.8.8,0,0,1-.22.6.86.86,0,0,1-.59.29l-1.31.08a.81.81,0,0,1-.63-.21.76.76,0,0,1-.29-.57l-.45-7.23c-3.33-4.79-5-7.2-8.18-12a1,1,0,0,1-.17-.43.69.69,0,0,1,.17-.49.67.67,0,0,1,.47-.22l1.33-.07a1.26,1.26,0,0,1,.9.2,2.34,2.34,0,0,1,.45.5c2.49,3.81,3.76,5.7,6.33,9.48,2.07-4.08,3.09-6.12,5.09-10.21a2.22,2.22,0,0,1,.38-.56,1.28,1.28,0,0,1,.87-.31l1.33-.1a.64.64,0,0,1,.49.16.69.69,0,0,1,.24.46,1,1,0,0,1-.12.45c-2.57,5.2-3.89,7.8-6.58,13C294.12,399.13,294.21,400.58,294.41,403.47Z" style="fill: rgb(55, 71, 79); transform-origin: 291.594px 393.33px;" id="elbf23fdghze6" class="animable"></path></g></g><defs>     <filter id="active" height="200%">         <feMorphology in="SourceAlpha" result="DILATED" operator="dilate" radius="2"></feMorphology>                <feFlood flood-color="#32DFEC" flood-opacity="1" result="PINK"></feFlood>        <feComposite in="PINK" in2="DILATED" operator="in" result="OUTLINE"></feComposite>        <feMerge>            <feMergeNode in="OUTLINE"></feMergeNode>            <feMergeNode in="SourceGraphic"></feMergeNode>        </feMerge>    </filter>    <filter id="hover" height="200%">        <feMorphology in="SourceAlpha" result="DILATED" operator="dilate" radius="2"></feMorphology>                <feFlood flood-color="#ff0000" flood-opacity="0.5" result="PINK"></feFlood>        <feComposite in="PINK" in2="DILATED" operator="in" result="OUTLINE"></feComposite>        <feMerge>            <feMergeNode in="OUTLINE"></feMergeNode>            <feMergeNode in="SourceGraphic"></feMergeNode>        </feMerge>            <feColorMatrix type="matrix" values="0   0   0   0   0                0   1   0   0   0                0   0   0   0   0                0   0   0   1   0 "></feColorMatrix>    </filter></defs></svg>